SplineFontDB: 3.2
FontName: ChromSans
FullName: Chrom Sans
FamilyName: Chrom Sans
Weight: Regular
Copyright:                                           
Version: 001.001
ItalicAngle: 0
UnderlinePosition: -100
UnderlineWidth: 50
Ascent: 800
Descent: 200
InvalidEm: 0
sfntRevision: 0x00000000
LayerCount: 2
Layer: 0 0 "Back" 1
Layer: 1 0 "Fore" 0
StyleMap: 0x0000
FSType: 0
OS2Version: 0
OS2_WeightWidthSlopeOnly: 0
OS2_UseTypoMetrics: 0
CreationTime: 0
ModificationTime: 1757284879
OS2TypoAscent: 0
OS2TypoAOffset: 0
OS2TypoDescent: 0
OS2TypoDOffset: 0
OS2TypoLinegap: 0
OS2WinAscent: 0
OS2WinAOffset: 0
OS2WinDescent: 0
OS2WinDOffset: 0
HheadAscent: 0
HheadAOffset: 0
HheadDescent: 0
HheadDOffset: 0
DEI: 91125
Encoding: AdobeStandard
UnicodeInterp: none
NameList: AGL For New Fonts
DisplaySize: -48
AntiAlias: 1
FitToEm: 0
BeginPrivate: 5
BlueValues 23 [-21 0 523 538 718 737]
OtherBlues 11 [-220 -207]
BlueScale 1 0
StdHW 4 [71]
StdVW 4 [87]
EndPrivate
BeginChars: 336 229

StartChar: A
Encoding: 65 65 0
Width: 667
Flags: HMW
HStem: 0 21G<14 14 14 109 552 552 552 654> 220 75<211 444 211 472 186 444> 698 20G<277 376 376 376>
LayerCount: 2
Fore
SplineSet
211 295 m 1
 444 295 l 1
 325 642 l 1
 323 642 l 1
 211 295 l 1
14 0 m 1
 277 718 l 1
 376 718 l 1
 654 0 l 1
 552 0 l 1
 472 220 l 1
 186 220 l 1
 109 0 l 1
 14 0 l 1
EndSplineSet
EndChar

StartChar: AE
Encoding: 225 198 1
Width: 1000
Flags: HMW
HStem: 0 84<579 951 579 951> 207 84<248 484 248 484 208 484> 327 84<579 910 579 910> 633 85<413 484 413 413 579 950 579 579>
VStem: 484 95<84 207 207 207 291 327 411 633>
LayerCount: 2
Fore
SplineSet
248 291 m 1
 484 291 l 1
 484 633 l 1
 413 633 l 1
 248 291 l 1
8 0 m 1
 352 718 l 1
 950 718 l 1
 950 633 l 1
 579 633 l 1
 579 411 l 1
 910 411 l 1
 910 327 l 1
 579 327 l 1
 579 84 l 1
 951 84 l 1
 951 0 l 1
 484 0 l 1
 484 207 l 1
 208 207 l 1
 111 0 l 1
 8 0 l 1
EndSplineSet
EndChar

StartChar: Aacute
Encoding: 256 193 2
Width: 667
Flags: HMW
HStem: 0 21G<14 14 14 110 552 552 552 654> 227 78<212 444 212 472 186 444> 796 133<268 448 333 340>
LayerCount: 2
Fore
SplineSet
268 796 m 1
 333 929 l 1
 448 929 l 1
 340 796 l 1
 268 796 l 1
212 305 m 1
 444 305 l 1
 325 666 l 1
 324 666 l 1
 212 305 l 1
14 0 m 1
 278 744 l 1
 375 744 l 1
 654 0 l 1
 552 0 l 1
 472 227 l 1
 186 227 l 1
 110 0 l 1
 14 0 l 1
EndSplineSet
EndChar

StartChar: Acircumflex
Encoding: 257 194 3
Width: 667
Flags: HMW
HStem: 0 21G<14 14 14 110 552 552 552 654> 227 78<212 444 212 472 186 444> 909 20G<285 378 378 378>
LayerCount: 2
Fore
SplineSet
179 796 m 1
 285 929 l 1
 378 929 l 1
 488 796 l 1
 388 796 l 1
 335 875 l 1
 279 796 l 1
 179 796 l 1
212 305 m 1
 444 305 l 1
 325 666 l 1
 324 666 l 1
 212 305 l 1
14 0 m 1
 278 744 l 1
 375 744 l 1
 654 0 l 1
 552 0 l 1
 472 227 l 1
 186 227 l 1
 110 0 l 1
 14 0 l 1
EndSplineSet
EndChar

StartChar: Adieresis
Encoding: 258 196 4
Width: 667
Flags: HMW
HStem: 0 21G<14 14 14 110 552 552 552 654> 227 78<212 444 212 472 186 444> 803 98<198 288 198 288 379 469 198 379>
VStem: 198 90<803 901 803 901> 379 90<803 901 803 901>
LayerCount: 2
Fore
SplineSet
379 803 m 1
 379 901 l 1
 469 901 l 1
 469 803 l 1
 379 803 l 1
198 803 m 1
 198 901 l 1
 288 901 l 1
 288 803 l 1
 198 803 l 1
212 305 m 1
 444 305 l 1
 325 666 l 1
 324 666 l 1
 212 305 l 1
14 0 m 1
 278 744 l 1
 375 744 l 1
 654 0 l 1
 552 0 l 1
 472 227 l 1
 186 227 l 1
 110 0 l 1
 14 0 l 1
EndSplineSet
EndChar

StartChar: Agrave
Encoding: 259 192 5
Width: 667
Flags: HMW
HStem: 0 21G<14 14 14 110 552 552 552 654> 227 78<212 444 212 472 186 444> 909 20G<216 325 325 325>
LayerCount: 2
Fore
SplineSet
319 791 m 1
 216 929 l 1
 325 929 l 1
 388 791 l 1
 319 791 l 1
212 305 m 1
 444 305 l 1
 325 666 l 1
 324 666 l 1
 212 305 l 1
14 0 m 1
 278 744 l 1
 375 744 l 1
 654 0 l 1
 552 0 l 1
 472 227 l 1
 186 227 l 1
 110 0 l 1
 14 0 l 1
EndSplineSet
EndChar

StartChar: Aring
Encoding: 260 197 6
Width: 667
Flags: HMW
HStem: 0 21G<14 14 14 110 552 552 552 654> 227 78<212 444 212 472 186 444> 770 36<315.5 343.5 315.5 352.5> 909 36
VStem: 241 36<843 872 843 883.5> 381 36<844.5 873>
LayerCount: 2
Fore
SplineSet
277 859 m 0
 277 827 302 806 329 806 c 0
 358 806 381 830 381 859 c 0
 381 887 359 909 329 909 c 0
 299 909 277 885 277 859 c 0
241 859 m 0
 241 908 279 944 328 944 c 0
 377 944 417 908 417 859 c 0
 417 810 377 770 328 770 c 0
 279 770 241 810 241 859 c 0
212 305 m 1
 444 305 l 1
 325 666 l 1
 324 666 l 1
 212 305 l 1
14 0 m 1
 278 744 l 1
 375 744 l 1
 654 0 l 1
 552 0 l 1
 472 227 l 1
 186 227 l 1
 110 0 l 1
 14 0 l 1
EndSplineSet
EndChar

StartChar: Atilde
Encoding: 261 195 7
Width: 667
Flags: HMW
HStem: 0 21G<14 14 14 110 552 552 552 654> 227 78<212 444 212 472 186 444> 804 113 896 20G<244.5 284>
LayerCount: 2
Fore
SplineSet
170 804 m 1
 169 881 220 916 269 916 c 0
 299 916 326 902 351 890 c 0
 369 882 385 875 398 875 c 0
 418 875 429 883 433 917 c 1
 497 917 l 1
 493 811 422 805 401 805 c 0
 382 805 362 817 341 828 c 0
 319 840 296 851 272 851 c 0
 268 851 234 851 235 804 c 1
 170 804 l 1
212 305 m 1
 444 305 l 1
 325 666 l 1
 324 666 l 1
 212 305 l 1
14 0 m 1
 278 744 l 1
 375 744 l 1
 654 0 l 1
 552 0 l 1
 472 227 l 1
 186 227 l 1
 110 0 l 1
 14 0 l 1
EndSplineSet
EndChar

StartChar: B
Encoding: 66 66 8
Width: 667
Flags: HMW
HStem: 0 85<169 312 169 312> 331 85<169 312 169 312> 633 85<169 312 169 169>
VStem: 74 95<85 85 85 331 416 633> 487 93<508 576>
LayerCount: 2
Fore
SplineSet
169 416 m 1
 312 416 l 2
 375 416 487 415 487 521 c 0
 487 631 391 633 312 633 c 2
 169 633 l 1
 169 416 l 1
169 85 m 1
 312 85 l 2
 362 85 529 84 529 208 c 0
 529 331 370 331 312 331 c 2
 169 331 l 1
 169 85 l 1
74 0 m 1
 74 718 l 1
 312 718 l 2
 434 718 580 679 580 521 c 0
 580 495 574 428 481 381 c 1
 591 348 627 264 627 208 c 0
 627 26 444 0 312 0 c 2
 74 0 l 1
EndSplineSet
EndChar

StartChar: C
Encoding: 67 67 9
Width: 722
Flags: HMW
HStem: -19 83<288 413> 654 83<285.5 438.5 285.5 440.5>
VStem: 56 99
LayerCount: 2
Fore
SplineSet
586 249 m 1
 681 224 l 1
 625 4 452 -19 374 -19 c 0
 130 -19 44 168 44 363 c 0
 44 621 197 737 374 737 c 0
 503 737 626 673 669 522 c 1
 575 500 l 1
 556 559 507 654 374 654 c 0
 175 654 143 481 143 363 c 0
 143 243 202 64 374 64 c 0
 511 64 567 160 586 249 c 1
EndSplineSet
EndChar

StartChar: Ccedilla
Encoding: 262 199 10
Width: 722
Flags: HMW
HStem: -225 21G<246 322.5> -14 79<288 326> 654 83<304.5 446.5 304.5 448.5>
VStem: 44 99<288.5 426 288.5 498.5> 384 86<-148 -115.5>
LayerCount: 2
Fore
SplineSet
326 -14 m 1
 113 -14 44 195 44 359 c 0
 44 638 226 737 383 737 c 0
 510 737 625 676 668 524 c 1
 574 502 l 1
 556 561 515 654 382 654 c 0
 192 654 143 493 143 359 c 0
 143 218 201 65 375 65 c 0
 513 65 563 159 585 251 c 1
 681 226 l 1
 639 60 531 -17 393 -17 c 1
 387 -50 l 1
 448 -57 470 -94 470 -129 c 0
 470 -206 399 -225 246 -225 c 1
 250 -162 l 1
 269 -161 384 -167 384 -129 c 0
 384 -102 353 -91 301 -90 c 1
 326 -14 l 1
EndSplineSet
EndChar

StartChar: D
Encoding: 68 68 11
Width: 722
Flags: HMW
HStem: 0 85<176 327 176 327> 633 85<176 327 176 176>
VStem: 81 95<85 85 85 633> 576 98<243 444.5>
LayerCount: 2
Fore
SplineSet
176 85 m 1
 327 85 l 2
 411 85 576 82 576 362 c 0
 576 527 481 633 327 633 c 2
 176 633 l 1
 176 85 l 1
81 0 m 1
 81 718 l 1
 327 718 l 2
 530 718 674 624 674 362 c 0
 674 124 545 0 327 0 c 2
 81 0 l 1
EndSplineSet
EndChar

StartChar: E
Encoding: 69 69 12
Width: 667
Flags: HMW
HStem: 0 85<181 583 181 583 181 583> 327 85<181 566 181 566> 633 85<181 583 86 583>
VStem: 86 95<0 327 85 327 412 633>
LayerCount: 2
Fore
SplineSet
86 0 m 1
 583 0 l 1
 583 85 l 1
 181 85 l 1
 181 327 l 1
 566 327 l 1
 566 412 l 1
 181 412 l 1
 181 633 l 1
 583 633 l 1
 583 718 l 1
 86 718 l 1
 86 0 l 1
EndSplineSet
EndChar

StartChar: Eacute
Encoding: 263 201 13
Width: 667
Flags: HMW
HStem: 0 85<181 616 181 616> 337 85<181 564 181 564> 651 85<181 601 181 181> 792 137<278 458 343 350>
VStem: 86 95<85 337 422 651>
LayerCount: 2
Fore
SplineSet
278 792 m 1
 343 929 l 1
 458 929 l 1
 350 792 l 1
 278 792 l 1
86 0 m 1
 86 736 l 1
 601 736 l 1
 601 651 l 1
 181 651 l 1
 181 422 l 1
 564 422 l 1
 564 337 l 1
 181 337 l 1
 181 85 l 1
 616 85 l 1
 616 0 l 1
 86 0 l 1
EndSplineSet
EndChar

StartChar: Ecircumflex
Encoding: 264 202 14
Width: 667
Flags: HMW
HStem: 0 85<181 616 181 616> 337 85<181 564 181 564> 651 85<181 601 181 181> 909 20G<295 388 388 388>
VStem: 86 95<85 337 422 651>
LayerCount: 2
Fore
SplineSet
189 792 m 1
 295 929 l 1
 388 929 l 1
 498 792 l 1
 398 792 l 1
 345 875 l 1
 289 792 l 1
 189 792 l 1
86 0 m 1
 86 736 l 1
 601 736 l 1
 601 651 l 1
 181 651 l 1
 181 422 l 1
 564 422 l 1
 564 337 l 1
 181 337 l 1
 181 85 l 1
 616 85 l 1
 616 0 l 1
 86 0 l 1
EndSplineSet
EndChar

StartChar: Edieresis
Encoding: 265 203 15
Width: 667
Flags: HMW
HStem: 0 85<181 616 181 616> 337 85<181 564 181 564> 651 85<181 601 181 181> 801 100<208 298 208 298 389 479 208 389>
VStem: 86 95<85 337 422 651> 208 90<801 901 801 901> 389 90<801 901 801 901>
LayerCount: 2
Fore
SplineSet
389 801 m 1
 389 901 l 1
 479 901 l 1
 479 801 l 1
 389 801 l 1
208 801 m 1
 208 901 l 1
 298 901 l 1
 298 801 l 1
 208 801 l 1
86 0 m 1
 86 736 l 1
 601 736 l 1
 601 651 l 1
 181 651 l 1
 181 422 l 1
 564 422 l 1
 564 337 l 1
 181 337 l 1
 181 85 l 1
 616 85 l 1
 616 0 l 1
 86 0 l 1
EndSplineSet
EndChar

StartChar: Egrave
Encoding: 266 200 16
Width: 667
Flags: HMW
HStem: 0 85<181 616 181 616> 337 85<181 564 181 564> 651 85<181 601 181 181> 796 133<337 337 337 344 229 409>
VStem: 86 95<85 337 422 651>
LayerCount: 2
Fore
SplineSet
337 796 m 1
 229 929 l 1
 344 929 l 1
 409 796 l 1
 337 796 l 1
86 0 m 1
 86 736 l 1
 601 736 l 1
 601 651 l 1
 181 651 l 1
 181 422 l 1
 564 422 l 1
 564 337 l 1
 181 337 l 1
 181 85 l 1
 616 85 l 1
 616 0 l 1
 86 0 l 1
EndSplineSet
EndChar

StartChar: Eth
Encoding: 267 208 17
Width: 722
Flags: HMW
HStem: 0 85<175 325 175 325> 316 85<0 80 0 80 175 370> 633 85<175 325 175 175>
VStem: 80 95<85 85 85 316 401 633> 576 98<241 463>
LayerCount: 2
Fore
SplineSet
175 85 m 1
 325 85 l 2
 409 85 576 83 576 362 c 0
 576 564 485 633 325 633 c 2
 175 633 l 1
 175 401 l 1
 370 401 l 1
 370 316 l 1
 175 316 l 1
 175 85 l 1
80 0 m 1
 80 316 l 1
 0 316 l 1
 0 401 l 1
 80 401 l 1
 80 718 l 1
 325 718 l 2
 528 718 674 624 674 362 c 0
 674 120 523 0 325 0 c 2
 80 0 l 1
EndSplineSet
EndChar

StartChar: Euro
Encoding: 268 8364 18
Width: 667
Flags: HMW
HStem: 0 79<397 494> 254 64 402 64 639 79<409.5 505>
LayerCount: 2
Fore
SplineSet
14 255 m 1
 30 319 l 1
 107 319 l 1
 106 339 105 381 106 401 c 1
 14 401 l 1
 30 465 l 1
 114 465 l 1
 151 629 277 718 476 718 c 0
 537 718 601 707 654 679 c 1
 631 592 l 1
 586 623 534 639 476 639 c 0
 343 639 233 579 210 465 c 1
 595 465 l 1
 580 401 l 1
 201 401 l 1
 200 368 200 333 201 319 c 1
 564 319 l 1
 549 255 l 1
 213 255 l 1
 237 143 327 79 467 79 c 0
 527 79 586 90 631 125 c 1
 631 27 l 1
 583 9 521 0 467 0 c 0
 252 0 163 83 119 255 c 1
 14 255 l 1
EndSplineSet
EndChar

StartChar: F
Encoding: 70 70 19
Width: 611
Flags: HMW
HStem: 0 21G<86 86 86 181> 324 85<181 508 181 508> 633 85<181 583 181 181>
VStem: 86 95<0 324 409 633>
LayerCount: 2
Fore
SplineSet
86 0 m 1
 86 718 l 1
 583 718 l 1
 583 633 l 1
 181 633 l 1
 181 409 l 1
 508 409 l 1
 508 324 l 1
 181 324 l 1
 181 0 l 1
 86 0 l 1
EndSplineSet
EndChar

StartChar: G
Encoding: 71 71 20
Width: 778
Flags: HMW
HStem: -19 87<323 460.5 323 483.5> 278 87<405 704 405 613> 654 83<285.5 485.5>
VStem: 48 95<271.5 390.5 271.5 427> 613 91<142 278 278 278>
LayerCount: 2
Fore
SplineSet
405 278 m 1
 405 365 l 1
 704 365 l 1
 704 94 l 1
 666 63 560 -19 407 -19 c 0
 192 -19 48 124 48 355 c 0
 48 499 117 737 405 737 c 0
 641 737 680 572 693 519 c 1
 609 495 l 1
 596 541 566 654 405 654 c 0
 166 654 143 426 143 355 c 0
 143 188 239 68 407 68 c 0
 514 68 596 128 613 142 c 1
 613 278 l 1
 405 278 l 1
EndSplineSet
EndChar

StartChar: H
Encoding: 72 72 21
Width: 722
Flags: HMW
HStem: 0 21G<77 77 77 172 551 551 551 646> 337 85<172 551 172 551> 698 20G<77 172 172 172 551 646 646 646>
VStem: 77 95<0 337 422 718> 551 95<0 337 337 337 422 718 0 718>
LayerCount: 2
Fore
SplineSet
77 0 m 1
 77 718 l 1
 172 718 l 1
 172 422 l 1
 551 422 l 1
 551 718 l 1
 646 718 l 1
 646 0 l 1
 551 0 l 1
 551 337 l 1
 172 337 l 1
 172 0 l 1
 77 0 l 1
EndSplineSet
EndChar

StartChar: I
Encoding: 73 73 22
Width: 278
Flags: HMW
HStem: 0 21G<91 91 91 188> 698 20G<91 188 188 188>
VStem: 91 97<0 718 0 718>
LayerCount: 2
Fore
SplineSet
91 0 m 1
 91 718 l 1
 188 718 l 1
 188 0 l 1
 91 0 l 1
EndSplineSet
EndChar

StartChar: Iacute
Encoding: 269 205 23
Width: 278
Flags: HMW
HStem: 0 21G<90 90 90 185> 909 20G<157 272 272 272>
VStem: 90 95<0 716 0 716>
LayerCount: 2
Fore
SplineSet
90 0 m 1
 90 716 l 1
 185 716 l 1
 185 0 l 1
 90 0 l 1
71 791 m 1
 157 929 l 1
 272 929 l 1
 143 791 l 1
 71 791 l 1
EndSplineSet
EndChar

StartChar: Icircumflex
Encoding: 270 206 24
Width: 278
Flags: HMW
HStem: 0 21G<90 90 90 185> 792 137<-6 184 91 94 91 186 91 285>
VStem: 90 95<0 716 0 716>
LayerCount: 2
Fore
SplineSet
90 0 m 1
 90 716 l 1
 185 716 l 1
 185 0 l 1
 90 0 l 1
-6 792 m 1
 91 929 l 1
 184 929 l 1
 285 792 l 1
 186 792 l 1
 141 875 l 1
 94 792 l 1
 -6 792 l 1
EndSplineSet
EndChar

StartChar: Idieresis
Encoding: 271 207 25
Width: 278
Flags: HMW
HStem: 0 21G<90 90 90 185> 801 100<13 103 13 103 176 266 13 176>
VStem: 13 90<801 901 801 901> 90 95<0 716 0 716> 176 90<801 901 801 901>
LayerCount: 2
Fore
SplineSet
176 801 m 1
 176 901 l 1
 266 901 l 1
 266 801 l 1
 176 801 l 1
13 801 m 1
 13 901 l 1
 103 901 l 1
 103 801 l 1
 13 801 l 1
90 0 m 1
 90 716 l 1
 185 716 l 1
 185 0 l 1
 90 0 l 1
EndSplineSet
EndChar

StartChar: Igrave
Encoding: 272 204 26
Width: 278
Flags: HMW
HStem: 0 21G<90 90 90 185> 909 20G<7 122 122 122>
VStem: 90 95<0 716 0 716>
LayerCount: 2
Fore
SplineSet
90 0 m 1
 90 716 l 1
 185 716 l 1
 185 0 l 1
 90 0 l 1
138 790 m 1
 7 929 l 1
 122 929 l 1
 208 790 l 1
 138 790 l 1
EndSplineSet
EndChar

StartChar: J
Encoding: 74 74 27
Width: 500
Flags: HMW
HStem: -19 85<185.5 274.5 171 311.5> 698 20G<333 428 428 428>
VStem: 17 86<107 211> 333 95<219 718>
LayerCount: 2
Fore
SplineSet
17 199 m 1
 103 211 l 1
 105 162 121 66 221 66 c 0
 328 66 333 160 333 219 c 2
 333 718 l 1
 428 718 l 1
 428 219 l 2
 428 108 402 -19 221 -19 c 0
 150 -19 17 15 17 199 c 1
EndSplineSet
EndChar

StartChar: K
Encoding: 75 75 28
Width: 667
Flags: HMW
HStem: 0 21G<76 76 76 171 538 538 538 663> 698 20G<76 171 171 171 526 654 654 654>
VStem: 76 95<0 248 361 718>
LayerCount: 2
Fore
SplineSet
76 0 m 1
 76 718 l 1
 171 718 l 1
 171 361 l 1
 526 718 l 1
 654 718 l 1
 355 426 l 1
 663 0 l 1
 538 0 l 1
 289 362 l 1
 171 248 l 1
 171 0 l 1
 76 0 l 1
EndSplineSet
EndChar

StartChar: L
Encoding: 76 76 29
Width: 556
Flags: HMW
HStem: 0 85<171 537 171 537> 698 20G<76 171 171 171>
VStem: 76 95<85 718 85 718 85 718>
LayerCount: 2
Fore
SplineSet
76 0 m 1
 76 718 l 1
 171 718 l 1
 171 85 l 1
 537 85 l 1
 537 0 l 1
 76 0 l 1
EndSplineSet
EndChar

StartChar: Lslash
Encoding: 232 321 30
Width: 556
Flags: HMW
HStem: 0 85<170 537 170 537> 698 20G<75 170 170 170>
VStem: 75 95<85 276 276 276 438 718>
LayerCount: 2
Fore
SplineSet
75 0 m 1
 75 276 l 1
 -20 194 l 1
 -20 275 l 1
 75 358 l 1
 75 718 l 1
 170 718 l 1
 170 438 l 1
 331 576 l 1
 331 494 l 1
 170 357 l 1
 170 85 l 1
 537 85 l 1
 537 0 l 1
 75 0 l 1
EndSplineSet
EndChar

StartChar: M
Encoding: 77 77 31
Width: 833
Flags: HMW
HStem: 0 21G<73 73 73 163 374 374 374 459 671 671 671 761> 698 20G<73 218 218 218 631 761 761 761>
VStem: 73 90<0 611 0 718> 671 90<0 601 601 601>
LayerCount: 2
Fore
SplineSet
73 0 m 1
 73 718 l 1
 218 718 l 1
 420 103 l 1
 422 103 l 1
 631 718 l 1
 761 718 l 1
 761 0 l 1
 671 0 l 1
 671 601 l 1
 669 601 l 1
 459 0 l 1
 374 0 l 1
 166 611 l 1
 163 611 l 1
 163 0 l 1
 73 0 l 1
EndSplineSet
EndChar

StartChar: N
Encoding: 78 78 32
Width: 722
Flags: HMW
HStem: 0 21G<76 76 76 166 549 549 549 646> 698 20G<76 173 173 173 556 646 646 646>
VStem: 76 90<0 564 0 718> 556 90<154 718 0 718>
LayerCount: 2
Fore
SplineSet
76 0 m 1
 76 718 l 1
 173 718 l 1
 554 154 l 1
 556 154 l 1
 556 718 l 1
 646 718 l 1
 646 0 l 1
 549 0 l 1
 168 564 l 1
 166 564 l 1
 166 0 l 1
 76 0 l 1
EndSplineSet
EndChar

StartChar: Ntilde
Encoding: 273 209 33
Width: 722
Flags: HMW
HStem: 0 21G<76 76 76 166 549 549 549 646> 579 154 875 42<434 535>
VStem: 76 90<0 562 0 716> 556 90<154 716 0 716>
LayerCount: 2
Fore
SplineSet
208 804 m 1
 207 881 258 916 307 916 c 0
 333 916 364 905 389 894 c 0
 413 884 432 875 436 875 c 0
 456 875 467 883 471 917 c 1
 535 917 l 1
 531 811 460 805 439 805 c 0
 420 805 398 816 376 828 c 0
 354 839 332 851 310 851 c 0
 306 851 272 851 273 804 c 1
 208 804 l 1
76 0 m 1
 76 716 l 1
 173 716 l 1
 556 154 l 1
 556 716 l 1
 646 716 l 1
 646 0 l 1
 549 0 l 1
 168 562 l 1
 166 562 l 1
 166 0 l 1
 76 0 l 1
EndSplineSet
EndChar

StartChar: O
Encoding: 79 79 34
Width: 778
Flags: HMW
HStem: -19 83<314 454.5 314 485.5> 654 83<297.5 450>
VStem: 60 100 619 100
LayerCount: 2
Fore
SplineSet
139 356 m 0
 139 185 240 64 388 64 c 0
 521 64 639 156 639 356 c 0
 639 565 512 654 388 654 c 0
 207 654 139 488 139 356 c 0
39 356 m 0
 39 615 204 737 388 737 c 0
 587 737 739 591 739 356 c 0
 739 120 583 -19 388 -19 c 0
 160 -19 39 169 39 356 c 0
EndSplineSet
EndChar

StartChar: OE
Encoding: 234 338 35
Width: 1000
Flags: HMW
HStem: -19 76<272 344> -6 85<618 965 618 965> 328 85<618 925 618 925> 642 85<618 950 618 618> 661 76<245 359 218 400.5>
VStem: 66 98 530 88<79 97 97 97>
LayerCount: 2
Fore
SplineSet
134 362 m 0
 134 160 221 57 323 57 c 0
 473 57 524 240 524 362 c 0
 524 460 478 661 323 661 c 0
 167 661 134 485 134 362 c 0
530 -6 m 1
 530 97 l 1
 528 97 l 1
 467 -12 365 -19 323 -19 c 0
 99 -19 36 195 36 362 c 0
 36 557 113 737 323 737 c 0
 395 737 477 717 527 630 c 1
 529 630 l 1
 529 727 l 1
 950 727 l 1
 950 642 l 1
 618 642 l 1
 618 413 l 1
 925 413 l 1
 925 328 l 1
 618 328 l 1
 618 79 l 1
 965 79 l 1
 965 -6 l 1
 530 -6 l 1
EndSplineSet
EndChar

StartChar: Oacute
Encoding: 274 211 36
Width: 778
Flags: HMW
HStem: -19 84<350.5 388 350.5 481.5> 657 85<342.5 419.5> 792 137<334 514 399 406>
VStem: 49 100<313.5 383.5 313.5 416.5> 629 100<357 403.5>
LayerCount: 2
Fore
SplineSet
149 357 m 0
 149 270 174 198 218 146 c 0
 262 95 313 65 388 65 c 0
 527 66 623 152 629 357 c 0
 629 450 596 531 555 582 c 0
 515 633 451 657 388 657 c 0
 297 657 246 613 206 552 c 0
 166 492 149 410 149 357 c 0
49 357 m 0
 49 476 91 579 147 644 c 0
 204 709 293 742 388 742 c 0
 488 742 577 703 633 634 c 0
 690 566 729 464 729 357 c 0
 726 115 575 -19 388 -19 c 0
 273 -19 197 28 138 97 c 0
 79 168 49 261 49 357 c 0
334 792 m 1
 399 929 l 1
 514 929 l 1
 406 792 l 1
 334 792 l 1
EndSplineSet
EndChar

StartChar: Ocircumflex
Encoding: 275 212 37
Width: 778
Flags: HMW
HStem: -19 84<350.5 388 350.5 481.5> 657 85<342.5 419.5> 909 20G<341 434 434 434>
VStem: 49 100<313.5 383.5 313.5 416.5> 629 100<357 403.5>
LayerCount: 2
Fore
SplineSet
149 357 m 0
 149 270 174 198 218 146 c 0
 262 95 313 65 388 65 c 0
 527 66 623 152 629 357 c 0
 629 450 596 531 555 582 c 0
 515 633 451 657 388 657 c 0
 297 657 246 613 206 552 c 0
 166 492 149 410 149 357 c 0
49 357 m 0
 49 476 91 579 147 644 c 0
 204 709 293 742 388 742 c 0
 488 742 577 703 633 634 c 0
 690 566 729 464 729 357 c 0
 726 115 575 -19 388 -19 c 0
 273 -19 197 28 138 97 c 0
 79 168 49 261 49 357 c 0
235 792 m 1
 341 929 l 1
 434 929 l 1
 544 792 l 1
 444 792 l 1
 391 875 l 1
 335 792 l 1
 235 792 l 1
EndSplineSet
EndChar

StartChar: Odieresis
Encoding: 276 214 38
Width: 778
Flags: HMW
HStem: -19 84<350.5 388 350.5 481.5> 657 85<342.5 419.5>
VStem: 49 100<313.5 383.5 313.5 416.5> 629 100<357 403.5>
LayerCount: 2
Fore
SplineSet
435 801 m 1
 435 901 l 1
 525 901 l 1
 525 801 l 1
 435 801 l 1
254 801 m 1
 254 901 l 1
 344 901 l 1
 344 801 l 1
 254 801 l 1
149 357 m 0
 149 270 174 198 218 146 c 0
 262 95 313 65 388 65 c 0
 527 66 623 152 629 357 c 0
 629 450 596 531 555 582 c 0
 515 633 451 657 388 657 c 0
 297 657 246 613 206 552 c 0
 166 492 149 410 149 357 c 0
49 357 m 0
 49 476 91 579 147 644 c 0
 204 709 293 742 388 742 c 0
 488 742 577 703 633 634 c 0
 690 566 729 464 729 357 c 0
 726 115 575 -19 388 -19 c 0
 273 -19 197 28 138 97 c 0
 79 168 49 261 49 357 c 0
EndSplineSet
EndChar

StartChar: Ograve
Encoding: 277 210 39
Width: 778
Flags: HMW
HStem: -19 84<350.5 388 350.5 481.5> 657 85<342.5 419.5> 788 141<382 382 382 390 272 456>
VStem: 49 100<313.5 383.5 313.5 416.5> 629 100<357 403.5>
LayerCount: 2
Fore
SplineSet
149 357 m 0
 149 270 174 198 218 146 c 0
 262 95 313 65 388 65 c 0
 527 66 623 152 629 357 c 0
 629 450 596 531 555 582 c 0
 515 633 451 657 388 657 c 0
 297 657 246 613 206 552 c 0
 166 492 149 410 149 357 c 0
49 357 m 0
 49 476 91 579 147 644 c 0
 204 709 293 742 388 742 c 0
 488 742 577 703 633 634 c 0
 690 566 729 464 729 357 c 0
 726 115 575 -19 388 -19 c 0
 273 -19 197 28 138 97 c 0
 79 168 49 261 49 357 c 0
382 788 m 1
 272 929 l 1
 390 929 l 1
 456 788 l 1
 382 788 l 1
EndSplineSet
EndChar

StartChar: Oslash
Encoding: 233 216 40
Width: 778
Flags: HMW
HStem: -19 21G<88 88> -4 79<344.5 458 344.5 478> 641 79<336 429> 717 20G<691 691>
VStem: 45 98<310.5 466.5> 631 98<266 392.5>
LayerCount: 2
Fore
SplineSet
227 135 m 1
 254 114 301 75 388 75 c 0
 528 75 631 176 631 356 c 0
 631 429 616 486 591 532 c 1
 227 135 l 1
186 183 m 1
 550 582 l 1
 510 613 470 641 388 641 c 0
 284 641 143 583 143 358 c 0
 143 263 165 223 186 183 c 1
39 21 m 1
 125 116 l 1
 84 178 45 235 45 358 c 0
 45 575 179 720 388 720 c 0
 505 720 566 678 609 646 c 1
 691 737 l 1
 740 697 l 1
 653 601 l 1
 686 553 729 487 729 356 c 0
 729 120 568 -4 388 -4 c 0
 269 -4 212 40 169 71 c 1
 88 -19 l 1
 39 21 l 1
EndSplineSet
EndChar

StartChar: Otilde
Encoding: 278 213 41
Width: 778
Flags: HMW
HStem: -19 84<350.5 388 350.5 481.5> 657 85<342.5 419.5>
VStem: 49 100<313.5 383.5 313.5 416.5> 629 100<357 403.5>
LayerCount: 2
Fore
SplineSet
149 357 m 0
 149 270 174 198 218 146 c 0
 262 95 313 65 388 65 c 0
 527 66 623 152 629 357 c 0
 629 450 596 531 555 582 c 0
 515 633 451 657 388 657 c 0
 297 657 246 613 206 552 c 0
 166 492 149 410 149 357 c 0
49 357 m 0
 49 476 91 579 147 644 c 0
 204 709 293 742 388 742 c 0
 488 742 577 703 633 634 c 0
 690 566 729 464 729 357 c 0
 726 115 575 -19 388 -19 c 0
 273 -19 197 28 138 97 c 0
 79 168 49 261 49 357 c 0
226 804 m 1
 226 880 276 916 325 916 c 0
 352 917 382 906 407 895 c 0
 431 884 450 875 454 875 c 0
 474 875 485 882 489 917 c 1
 553 917 l 1
 553 800 478 805 457 805 c 0
 446 805 422 819 394 831 c 0
 370 842 347 851 328 851 c 0
 323 851 291 852 291 804 c 1
 226 804 l 1
EndSplineSet
EndChar

StartChar: P
Encoding: 80 80 42
Width: 667
Flags: HMW
HStem: 0 21G<86 86 86 181> 290 85<181 357 181 357> 633 85<181 357 181 181>
VStem: 86 95<0 290 375 633> 507 98
LayerCount: 2
Fore
SplineSet
181 375 m 1
 357 375 l 2
 409 375 524 380 524 506 c 0
 524 607 453 633 357 633 c 2
 181 633 l 1
 181 375 l 1
86 0 m 1
 86 718 l 1
 357 718 l 2
 493 718 622 671 622 506 c 0
 622 338 489 290 357 290 c 2
 181 290 l 1
 181 0 l 1
 86 0 l 1
EndSplineSet
EndChar

StartChar: Q
Encoding: 81 81 43
Width: 778
Flags: HMW
HStem: -56 21G<712 712> -12 82<323 407.5 323 412.5> 655 82<331.5 444.5>
VStem: 56 98 629 98<328 464>
LayerCount: 2
Fore
SplineSet
409 200 m 1
 386 130 l 1
 421 122 449 108 480 89 c 1
 469 84 433 70 382 70 c 0
 264 70 137 147 137 362 c 0
 137 596 281 655 382 655 c 0
 507 655 629 566 629 362 c 0
 629 294 616 194 544 130 c 1
 520 153 485 179 409 200 c 1
558 32 m 1
 610 -8 661 -37 712 -56 c 1
 739 11 l 1
 696 28 656 51 619 78 c 1
 707 163 727 278 727 362 c 0
 727 590 580 737 382 737 c 0
 166 737 39 574 39 362 c 0
 39 142 182 -12 382 -12 c 0
 443 -12 502 1 558 32 c 1
EndSplineSet
EndChar

StartChar: R
Encoding: 82 82 44
Width: 722
Flags: HMW
HStem: 0 21G<88 88 88 183 565 565 565 684> 316 85<183 247 183 351> 639 79<183 351 183 183>
VStem: 88 95<0 316 401 639> 527 98<470.5 568>
LayerCount: 2
Fore
SplineSet
183 401 m 1
 351 401 l 2
 430 401 527 419 527 522 c 0
 527 614 425 639 351 639 c 2
 183 639 l 1
 183 401 l 1
88 0 m 1
 88 718 l 1
 351 718 l 2
 480 718 625 674 625 522 c 0
 625 407 546 343 424 327 c 1
 424 325 l 1
 460 308 507 262 563 175 c 2
 684 0 l 1
 565 0 l 1
 471 148 l 2
 369 309 326 316 247 316 c 2
 183 316 l 1
 183 0 l 1
 88 0 l 1
EndSplineSet
EndChar

StartChar: S
Encoding: 83 83 45
Width: 667
Flags: HMW
HStem: -19 87<314 400.5 314 432.5> 650 87<297 402.5>
VStem: 76 91<504 581.5 504 592.5> 520 91
LayerCount: 2
Fore
SplineSet
49 229 m 1
 139 237 l 1
 155 100 277 68 351 68 c 0
 450 68 529 112 529 193 c 0
 529 279 457 298 311 333 c 0
 218 356 76 390 76 536 c 0
 76 649 169 737 328 737 c 0
 483 737 594 662 599 518 c 1
 507 511 l 1
 502 564 477 650 328 650 c 0
 266 650 167 627 167 536 c 0
 167 472 207 455 339 425 c 0
 470 396 620 354 620 193 c 0
 620 72 514 -19 351 -19 c 0
 136 -19 65 82 49 229 c 1
EndSplineSet
EndChar

StartChar: Scaron
Encoding: 279 352 46
Width: 667
Flags: HMW
HStem: -19 85<314.5 400.5 314.5 432.5> 634 85
VStem: 78 90<493 568.5 493 579.5> 515 91
LayerCount: 2
Fore
SplineSet
289 792 m 1
 179 929 l 1
 279 929 l 1
 332 846 l 1
 388 929 l 1
 488 929 l 1
 382 792 l 1
 289 792 l 1
49 224 m 1
 139 232 l 1
 164 100 278 66 351 66 c 0
 450 66 529 109 529 189 c 0
 529 273 457 291 312 326 c 0
 219 348 78 381 78 524 c 0
 78 635 170 722 329 722 c 0
 483 722 593 648 598 507 c 1
 507 500 l 1
 502 552 477 637 329 637 c 0
 267 637 168 613 168 524 c 0
 168 462 208 445 339 416 c 0
 470 387 620 346 620 189 c 0
 620 70 514 -19 351 -19 c 0
 137 -19 71 100 49 224 c 1
EndSplineSet
EndChar

StartChar: T
Encoding: 84 84 47
Width: 611
Flags: HMW
HStem: 0 21G<257 257 257 352> 633 85<14 257 14 597 352 352 352 597>
VStem: 257 95<0 633 0 633>
LayerCount: 2
Fore
SplineSet
257 0 m 1
 257 633 l 1
 14 633 l 1
 14 718 l 1
 597 718 l 1
 597 633 l 1
 352 633 l 1
 352 0 l 1
 257 0 l 1
EndSplineSet
EndChar

StartChar: Thorn
Encoding: 280 222 48
Width: 667
Flags: HMW
HStem: 0 21G<86 86 86 181> 145 85<181 346 181 346> 486 85<181 346 181 346> 698 20G<86 181 181 181>
VStem: 86 95<0 145 230 486 571 718> 524 98<296.5 414>
LayerCount: 2
Fore
SplineSet
181 230 m 1
 346 230 l 2
 395 230 524 233 524 360 c 0
 524 468 436 486 346 486 c 2
 181 486 l 1
 181 230 l 1
86 0 m 1
 86 718 l 1
 181 718 l 1
 181 571 l 1
 346 571 l 2
 487 571 622 521 622 360 c 0
 622 191 478 145 346 145 c 2
 181 145 l 1
 181 0 l 1
 86 0 l 1
EndSplineSet
EndChar

StartChar: U
Encoding: 85 85 49
Width: 722
Flags: HMW
HStem: -19 85<266 444 266 496> 698 20G<79 174 174 174 549 644 644 644>
VStem: 79 95<296 718> 549 95<296 718>
LayerCount: 2
Fore
SplineSet
79 718 m 1
 174 718 l 1
 174 296 l 2
 174 209 176 66 356 66 c 0
 532 66 549 167 549 296 c 2
 549 718 l 1
 644 718 l 1
 644 296 l 2
 644 201 636 -19 356 -19 c 0
 85 -19 79 169 79 296 c 2
 79 718 l 1
EndSplineSet
EndChar

StartChar: Uacute
Encoding: 281 218 50
Width: 722
Flags: HMW
HStem: -19 85<264 442 264 494>
VStem: 79 95<302 713> 549 95<302 713>
LayerCount: 2
Fore
SplineSet
306 792 m 1
 371 929 l 1
 486 929 l 1
 378 792 l 1
 306 792 l 1
79 713 m 1
 174 713 l 1
 174 302 l 2
 174 215 174 66 354 66 c 0
 530 66 549 173 549 302 c 2
 549 713 l 1
 644 713 l 1
 644 302 l 2
 644 207 634 -19 354 -19 c 0
 83 -19 79 175 79 302 c 2
 79 713 l 1
EndSplineSet
EndChar

StartChar: Ucircumflex
Encoding: 282 219 51
Width: 722
Flags: HMW
HStem: -19 85<264 442 264 494>
VStem: 79 95<302 713> 549 95<302 713>
LayerCount: 2
Fore
SplineSet
207 792 m 1
 313 929 l 1
 406 929 l 1
 516 792 l 1
 416 792 l 1
 363 875 l 1
 307 792 l 1
 207 792 l 1
79 713 m 1
 174 713 l 1
 174 302 l 2
 174 215 174 66 354 66 c 0
 530 66 549 173 549 302 c 2
 549 713 l 1
 644 713 l 1
 644 302 l 2
 644 207 634 -19 354 -19 c 0
 83 -19 79 175 79 302 c 2
 79 713 l 1
EndSplineSet
EndChar

StartChar: Udieresis
Encoding: 283 220 52
Width: 722
Flags: HMW
HStem: -19 85<264 442 264 494> 796 100
VStem: 79 95<302 713> 549 95<302 713>
LayerCount: 2
Fore
SplineSet
407 801 m 1
 407 901 l 1
 497 901 l 1
 497 801 l 1
 407 801 l 1
226 801 m 1
 226 901 l 1
 316 901 l 1
 316 801 l 1
 226 801 l 1
79 713 m 1
 174 713 l 1
 174 302 l 2
 174 215 174 66 354 66 c 0
 530 66 549 173 549 302 c 2
 549 713 l 1
 644 713 l 1
 644 302 l 2
 644 207 634 -19 354 -19 c 0
 83 -19 79 175 79 302 c 2
 79 713 l 1
EndSplineSet
EndChar

StartChar: Ugrave
Encoding: 284 217 53
Width: 722
Flags: HMW
HStem: -19 85<264 442 264 494>
VStem: 79 95<302 713> 549 95<302 713>
LayerCount: 2
Fore
SplineSet
345 792 m 1
 237 929 l 1
 352 929 l 1
 417 792 l 1
 345 792 l 1
79 713 m 1
 174 713 l 1
 174 302 l 2
 174 215 174 66 354 66 c 0
 530 66 549 173 549 302 c 2
 549 713 l 1
 644 713 l 1
 644 302 l 2
 644 207 634 -19 354 -19 c 0
 83 -19 79 175 79 302 c 2
 79 713 l 1
EndSplineSet
EndChar

StartChar: V
Encoding: 86 86 54
Width: 667
Flags: HMW
HStem: 0 21G<289 289 289 382> 698 20G<20 117 117 117 556 647 647 647>
LayerCount: 2
Fore
SplineSet
289 0 m 1
 20 718 l 1
 117 718 l 1
 335 79 l 1
 556 718 l 1
 647 718 l 1
 382 0 l 1
 289 0 l 1
EndSplineSet
EndChar

StartChar: W
Encoding: 87 87 55
Width: 944
Flags: HMW
HStem: 0 21G<206 206 206 301 642 642 642 732> 698 20G<16 112 112 112 419 529 529 529 834 928 928 928>
LayerCount: 2
Fore
SplineSet
206 0 m 1
 16 718 l 1
 112 718 l 1
 251 100 l 1
 253 100 l 1
 419 718 l 1
 529 718 l 1
 687 100 l 1
 834 718 l 1
 928 718 l 1
 732 0 l 1
 642 0 l 1
 470 632 l 1
 469 632 l 1
 301 0 l 1
 206 0 l 1
EndSplineSet
EndChar

StartChar: X
Encoding: 88 88 56
Width: 667
Flags: HMW
HStem: 0 21G<19 19 19 128 536 536 536 648> 698 20G<50 158 158 158 540 629 629 629>
LayerCount: 2
Fore
SplineSet
19 0 m 1
 285 374 l 1
 50 718 l 1
 158 718 l 1
 337 445 l 1
 540 718 l 1
 629 718 l 1
 388 380 l 1
 648 0 l 1
 536 0 l 1
 334 304 l 1
 333 304 l 1
 128 0 l 1
 19 0 l 1
EndSplineSet
EndChar

StartChar: Y
Encoding: 89 89 57
Width: 667
Flags: HMW
HStem: 0 21G<283 283 283 376> 698 20G<14 126 126 126 546 653 653 653>
VStem: 283 93<0 303 0 303>
LayerCount: 2
Fore
SplineSet
283 0 m 1
 283 303 l 1
 14 718 l 1
 126 718 l 1
 335 379 l 1
 546 718 l 1
 653 718 l 1
 376 303 l 1
 376 0 l 1
 283 0 l 1
EndSplineSet
EndChar

StartChar: Yacute
Encoding: 285 221 58
Width: 667
Flags: HMW
HStem: 0 21G<281 281 281 376> 792 137<278 458 343 350>
VStem: 281 95<0 303 0 303>
LayerCount: 2
Fore
SplineSet
278 792 m 1
 343 929 l 1
 458 929 l 1
 350 792 l 1
 278 792 l 1
281 0 m 1
 281 303 l 1
 14 713 l 1
 130 713 l 1
 334 379 l 1
 543 713 l 1
 653 713 l 1
 376 303 l 1
 376 0 l 1
 281 0 l 1
EndSplineSet
EndChar

StartChar: Ydieresis
Encoding: 286 376 59
Width: 667
Flags: HMW
HStem: 0 21G<281 281 281 376> 801 100<198 288 198 288 379 469 198 379>
VStem: 198 90<801 901 801 901> 281 95<0 303 0 303> 379 90<801 901 801 901>
LayerCount: 2
Fore
SplineSet
379 801 m 1
 379 901 l 1
 469 901 l 1
 469 801 l 1
 379 801 l 1
198 801 m 1
 198 901 l 1
 288 901 l 1
 288 801 l 1
 198 801 l 1
281 0 m 1
 281 303 l 1
 14 713 l 1
 129 713 l 1
 329 379 l 1
 543 713 l 1
 653 713 l 1
 376 303 l 1
 376 0 l 1
 281 0 l 1
EndSplineSet
EndChar

StartChar: Z
Encoding: 90 90 60
Width: 611
Flags: HMW
HStem: 0 85<132 588 132 588> 633 85<64 462 64 575 64 575>
LayerCount: 2
Fore
SplineSet
23 0 m 1
 23 89 l 1
 462 633 l 1
 64 633 l 1
 64 718 l 1
 575 718 l 1
 575 633 l 1
 132 85 l 1
 588 85 l 1
 588 0 l 1
 23 0 l 1
EndSplineSet
EndChar

StartChar: Zcaron
Encoding: 287 381 61
Width: 611
Flags: HMW
HStem: 0 85<132 588 132 588> 628 85<64 464 64 577 64 577> 909 20G<151 251 251 251 360 460 460 460>
LayerCount: 2
Fore
SplineSet
261 792 m 1
 151 929 l 1
 251 929 l 1
 304 846 l 1
 360 929 l 1
 460 929 l 1
 354 792 l 1
 261 792 l 1
23 0 m 1
 23 89 l 1
 464 628 l 1
 64 628 l 1
 64 713 l 1
 577 713 l 1
 577 628 l 1
 132 85 l 1
 588 85 l 1
 588 0 l 1
 23 0 l 1
EndSplineSet
EndChar

StartChar: a
Encoding: 97 97 62
Width: 556
Flags: HMW
HStem: -15 69<175.5 227.5 175.5 243> 466 72<219 338.5>
VStem: 36 94<120.5 174 120.5 206> 398 88<222.5 260>
LayerCount: 2
Fore
SplineSet
398 260 m 1
 364 247 288 234 242 227 c 0
 188 219 130 209 130 139 c 0
 130 102 136 54 215 54 c 0
 240 54 318 59 359 103 c 0
 394 141 398 185 398 260 c 1
51 377 m 1
 61 423 74 538 274 538 c 0
 475 538 486 425 486 335 c 2
 486 187 l 2
 486 54 502 47 530 -3 c 1
 438 -3 l 1
 424 24 406 48 404 61 c 1
 330 -2 271 -15 215 -15 c 0
 101 -15 36 51 36 137 c 0
 36 275 185 292 242 299 c 0
 255 301 348 311 398 329 c 1
 400 385 403 466 274 466 c 0
 164 466 148 409 137 366 c 1
 51 377 l 1
EndSplineSet
EndChar

StartChar: aacute
Encoding: 288 225 63
Width: 556
Flags: HMW
HStem: -14 79 0 21G<428 520 428 428> 458 72<246.5 274 226 306> 597 137<223 403 288 295>
VStem: 47 94 390 88<228 260 260 260>
LayerCount: 2
Fore
SplineSet
390 228 m 1
 390 260 l 1
 352 245 292 236 242 227 c 0
 215 223 197 218 176 206 c 0
 155 194 141 174 141 139 c 0
 141 120 148 103 164 87 c 0
 181 72 198 65 217 65 c 0
 314 65 384 128 390 228 c 1
149 359 m 1
 63 370 l 1
 69 393 73 432 102 467 c 0
 135 502 178 530 274 530 c 0
 454 529 483 425 478 335 c 1
 478 217 l 2
 478 84 491 50 520 0 c 1
 428 0 l 1
 413 27 399 51 396 64 c 1
 321 1 273 -15 217 -15 c 0
 124 -15 46 49 46 137 c 0
 46 274 199 293 242 299 c 0
 260 303 335 309 390 329 c 1
 391 357 392 390 376 414 c 0
 360 439 338 458 274 458 c 0
 219 458 198 444 179 424 c 0
 160 405 154 380 149 359 c 1
223 597 m 1
 288 734 l 1
 403 734 l 1
 295 597 l 1
 223 597 l 1
EndSplineSet
EndChar

StartChar: acircumflex
Encoding: 289 226 64
Width: 556
Flags: HMW
HStem: -14 79 0 21G<428 520 428 428> 458 72<246.5 274 226 306> 714 20G<230 323 323 323>
VStem: 47 94 390 88<228 260 260 260>
LayerCount: 2
Fore
SplineSet
390 228 m 1
 390 260 l 1
 352 245 292 236 242 227 c 0
 215 223 197 218 176 206 c 0
 155 194 141 174 141 139 c 0
 141 120 148 103 164 87 c 0
 181 72 198 65 217 65 c 0
 314 65 384 128 390 228 c 1
149 359 m 1
 63 370 l 1
 69 393 73 432 102 467 c 0
 135 502 178 530 274 530 c 0
 454 529 483 425 478 335 c 1
 478 217 l 2
 478 84 491 50 520 0 c 1
 428 0 l 1
 413 27 399 51 396 64 c 1
 321 1 273 -15 217 -15 c 0
 124 -15 46 49 46 137 c 0
 46 274 199 293 242 299 c 0
 260 303 335 309 390 329 c 1
 391 357 392 390 376 414 c 0
 360 439 338 458 274 458 c 0
 219 458 198 444 179 424 c 0
 160 405 154 380 149 359 c 1
124 597 m 1
 230 734 l 1
 323 734 l 1
 433 597 l 1
 333 597 l 1
 280 680 l 1
 224 597 l 1
 124 597 l 1
EndSplineSet
EndChar

StartChar: acute
Encoding: 194 180 65
Width: 333
Flags: HMW
HStem: 593 21G<122 122 122 194> 714 20G<204 319 319 319>
LayerCount: 2
Fore
SplineSet
122 593 m 1
 204 734 l 1
 319 734 l 1
 194 593 l 1
 122 593 l 1
EndSplineSet
EndChar

StartChar: adieresis
Encoding: 290 228 66
Width: 556
Flags: HMW
HStem: -14 79 0 21G<428 520 428 428> 458 72<246.5 274 226 306> 606 100<143 233 143 233 324 414 143 324>
VStem: 47 94 390 88<228 260 260 260>
LayerCount: 2
Fore
SplineSet
390 228 m 1
 390 260 l 1
 352 245 292 236 242 227 c 0
 215 223 197 218 176 206 c 0
 155 194 141 174 141 139 c 0
 141 120 148 103 164 87 c 0
 181 72 198 65 217 65 c 0
 314 65 384 128 390 228 c 1
149 359 m 1
 63 370 l 1
 69 393 73 432 102 467 c 0
 135 502 178 530 274 530 c 0
 454 529 483 425 478 335 c 1
 478 217 l 2
 478 84 491 50 520 0 c 1
 428 0 l 1
 413 27 399 51 396 64 c 1
 321 1 273 -15 217 -15 c 0
 124 -15 46 49 46 137 c 0
 46 274 199 293 242 299 c 0
 260 303 335 309 390 329 c 1
 391 357 392 390 376 414 c 0
 360 439 338 458 274 458 c 0
 219 458 198 444 179 424 c 0
 160 405 154 380 149 359 c 1
324 606 m 1
 324 706 l 1
 414 706 l 1
 414 606 l 1
 324 606 l 1
143 606 m 1
 143 706 l 1
 233 706 l 1
 233 606 l 1
 143 606 l 1
EndSplineSet
EndChar

StartChar: ae
Encoding: 241 230 67
Width: 889
Flags: HMW
HStem: -15 73<585.5 665.5 571 688> 237 72<475 758 475 847 475 758> 466 72<227.5 326.5 570 683>
VStem: 36 94<128 161.5 128 175.5> 386 89
LayerCount: 2
Fore
SplineSet
475 309 m 1
 758 309 l 1
 755 341 747 466 619 466 c 0
 521 466 480 383 475 309 c 1
388 260 m 1
 350 243 289 234 237 226 c 0
 201 220 130 183 130 140 c 0
 130 116 126 55 214 55 c 0
 334 55 411 134 388 260 c 1
49 368 m 1
 61 418 87 538 273 538 c 0
 410 538 440 490 453 468 c 1
 473 489 517 538 619 538 c 0
 789 538 847 401 847 237 c 1
 475 237 l 1
 464 140 523 58 619 58 c 0
 712 58 746 133 755 171 c 1
 846 159 l 1
 821 72 757 -15 619 -15 c 0
 552 -15 487 7 427 85 c 1
 377 35 312 -15 214 -15 c 0
 61 -15 36 97 36 137 c 0
 36 214 135 290 237 304 c 0
 296 312 347 315 386 327 c 1
 390 407 380 466 273 466 c 0
 182 466 145 405 135 358 c 1
 49 368 l 1
EndSplineSet
EndChar

StartChar: agrave
Encoding: 291 224 68
Width: 556
Flags: HMW
HStem: -14 79 0 21G<428 520 428 428> 458 72<246.5 274 226 306> 598 136<262 262 262 269 154 334>
VStem: 47 94 390 88<228 260 260 260>
LayerCount: 2
Fore
SplineSet
390 228 m 1
 390 260 l 1
 352 245 292 236 242 227 c 0
 215 223 197 218 176 206 c 0
 155 194 141 174 141 139 c 0
 141 120 148 103 164 87 c 0
 181 72 198 65 217 65 c 0
 314 65 384 128 390 228 c 1
149 359 m 1
 63 370 l 1
 69 393 73 432 102 467 c 0
 135 502 178 530 274 530 c 0
 454 529 483 425 478 335 c 1
 478 217 l 2
 478 84 491 50 520 0 c 1
 428 0 l 1
 413 27 399 51 396 64 c 1
 321 1 273 -15 217 -15 c 0
 124 -15 46 49 46 137 c 0
 46 274 199 293 242 299 c 0
 260 303 335 309 390 329 c 1
 391 357 392 390 376 414 c 0
 360 439 338 458 274 458 c 0
 219 458 198 444 179 424 c 0
 160 405 154 380 149 359 c 1
262 598 m 1
 154 734 l 1
 269 734 l 1
 334 598 l 1
 262 598 l 1
EndSplineSet
EndChar

StartChar: ampersand
Encoding: 38 38 69
Width: 667
Flags: HMW
HStem: -15 79<224 300 224 311.5> 646 72<286.5 325.5>
VStem: 44 93<173.5 231 173.5 233> 133 90<554.5 589.5 554.5 606> 387 90<533 591.5>
LayerCount: 2
Fore
SplineSet
297 453 m 1
 341 479 387 502 387 564 c 0
 387 619 345 646 306 646 c 0
 267 646 223 615 223 564 c 0
 223 545 229 533 297 453 c 1
259 350 m 1
 197 312 137 265 137 197 c 0
 137 150 177 64 271 64 c 0
 329 64 389 103 420 150 c 1
 259 350 l 1
213 407 m 1
 151 479 133 520 133 564 c 0
 133 648 201 718 306 718 c 0
 406 718 477 646 477 564 c 0
 477 498 437 447 342 397 c 1
 471 233 l 1
 492 276 502 321 505 333 c 1
 596 314 l 1
 580 251 561 203 532 159 c 1
 565 117 606 81 645 53 c 1
 586 -14 l 1
 533 21 489 65 475 80 c 1
 419 17 353 -15 270 -15 c 0
 117 -15 44 101 44 193 c 0
 44 273 87 346 213 407 c 1
EndSplineSet
EndChar

StartChar: aring
Encoding: 292 229 70
Width: 556
Flags: HMW
HStem: -14 79 0 21G<428 520 428 428> 458 72<246.5 274 226 306> 578 36<265.5 293.5 265.5 302.5> 720 36<263.5 294.5>
VStem: 47 94 191 36<652 681.5 652 691.5> 331 36<652.5 681> 390 88<228 260 260 260>
LayerCount: 2
Fore
SplineSet
390 228 m 1
 390 260 l 1
 352 245 292 236 242 227 c 0
 215 223 197 218 176 206 c 0
 155 194 141 174 141 139 c 0
 141 120 148 103 164 87 c 0
 181 72 198 65 217 65 c 0
 314 65 384 128 390 228 c 1
149 359 m 1
 63 370 l 1
 69 393 73 432 102 467 c 0
 135 502 178 530 274 530 c 0
 454 529 483 425 478 335 c 1
 478 217 l 2
 478 84 491 50 520 0 c 1
 428 0 l 1
 413 27 399 51 396 64 c 1
 321 1 273 -15 217 -15 c 0
 124 -15 46 49 46 137 c 0
 46 274 199 293 242 299 c 0
 260 303 335 309 390 329 c 1
 391 357 392 390 376 414 c 0
 360 439 338 458 274 458 c 0
 219 458 198 444 179 424 c 0
 160 405 154 380 149 359 c 1
227 668 m 0
 227 636 252 614 279 614 c 0
 308 614 331 638 331 667 c 0
 331 695 310 720 279 720 c 0
 248 720 227 695 227 668 c 0
191 667 m 0
 191 716 229 756 278 756 c 0
 327 756 367 716 367 667 c 0
 367 618 327 578 278 578 c 0
 229 578 191 618 191 667 c 0
EndSplineSet
EndChar

StartChar: asciicircum
Encoding: 94 94 71
Width: 469
Flags: HMW
HStem: 264 21G<-14 -14 -14 76 394 394 394 483> 668 20G<199 270 270 270>
LayerCount: 2
Fore
SplineSet
-14 264 m 1
 199 688 l 1
 270 688 l 1
 483 264 l 1
 394 264 l 1
 234 589 l 1
 76 264 l 1
 -14 264 l 1
EndSplineSet
EndChar

StartChar: asciitilde
Encoding: 126 126 72
Width: 584
Flags: HMW
HStem: 180 21G<61 61> 181 86<392.5 430> 239 86<166.5 203 166.5 203.5> 306 20G<523 523>
LayerCount: 2
Fore
SplineSet
61 180 m 1
 61 273 l 1
 97 313 147 325 186 325 c 0
 220 325 265 306 310 290 c 0
 344 278 378 267 407 267 c 0
 465 267 515 317 523 326 c 1
 523 231 l 1
 496 207 461 181 399 181 c 0
 361 181 331 193 301 206 c 0
 264 222 228 239 179 239 c 0
 125 239 90 207 61 180 c 1
EndSplineSet
EndChar

StartChar: asterisk
Encoding: 42 42 73
Width: 389
Flags: HMW
HStem: 431 21G<130 130 256 256> 698 20G<159 226 226 226>
LayerCount: 2
Fore
SplineSet
130 431 m 1
 75 471 l 1
 153 558 l 1
 115 565 79 573 39 583 c 1
 61 649 l 1
 83 641 161 597 169 604 c 1
 161 669 159 687 159 718 c 1
 226 718 l 1
 226 697 224 657 216 605 c 1
 252 623 302 641 327 649 c 1
 349 583 l 1
 319 574 267 562 231 558 c 1
 253 539 308 475 313 471 c 1
 256 431 l 1
 229 467 216 490 192 530 c 1
 164 478 150 457 130 431 c 1
EndSplineSet
EndChar

StartChar: at
Encoding: 64 64 74
Width: 1015
Flags: HMW
HStem: -47 61<458.5 631.5 458.5 672.5> -47 186<397 900> 130 65 522 63<450.5 509.5 442 522.5> 694 60<427.5 611.5>
VStem: 136 59<228 410> 288 75<271 349.5 271 375> 821 59<358 508.5>
LayerCount: 2
Fore
SplineSet
363 313 m 0
 363 229 395 195 435 195 c 0
 505 195 594 289 594 403 c 0
 594 483 547 522 498 522 c 0
 403 522 363 386 363 313 c 0
559 200 m 1
 538 176 495 131 435 131 c 0
 352 131 288 208 288 313 c 0
 288 437 386 585 498 585 c 0
 521 585 577 579 620 507 c 1
 634 572 l 1
 706 572 l 1
 636 227 l 2
 636 208 653 199 665 199 c 0
 709 199 821 286 821 430 c 0
 821 587 692 694 531 694 c 0
 324 694 195 519 195 327 c 0
 195 83 374 14 543 14 c 0
 720 14 797 98 827 139 c 1
 900 139 l 1
 890 118 802 -47 543 -47 c 0
 251 -47 136 129 136 327 c 0
 136 493 226 754 531 754 c 0
 761 754 880 589 880 430 c 0
 880 266 757 130 637 130 c 0
 567 130 562 174 559 200 c 1
EndSplineSet
EndChar

StartChar: atilde
Encoding: 293 227 75
Width: 556
Flags: HMW
HStem: -14 79 0 21G<428 520 428 428> 458 72<246.5 274 226 306> 609 113<115 225.5 115 225.5>
VStem: 47 94 390 88<228 260 260 260>
LayerCount: 2
Fore
SplineSet
390 228 m 1
 390 260 l 1
 352 245 292 236 242 227 c 0
 215 223 197 218 176 206 c 0
 155 194 141 174 141 139 c 0
 141 120 148 103 164 87 c 0
 181 72 198 65 217 65 c 0
 314 65 384 128 390 228 c 1
149 359 m 1
 63 370 l 1
 69 393 73 432 102 467 c 0
 135 502 178 530 274 530 c 0
 454 529 483 425 478 335 c 1
 478 217 l 2
 478 84 491 50 520 0 c 1
 428 0 l 1
 413 27 399 51 396 64 c 1
 321 1 273 -15 217 -15 c 0
 124 -15 46 49 46 137 c 0
 46 274 199 293 242 299 c 0
 260 303 335 309 390 329 c 1
 391 357 392 390 376 414 c 0
 360 439 338 458 274 458 c 0
 219 458 198 444 179 424 c 0
 160 405 154 380 149 359 c 1
180 609 m 1
 115 609 l 1
 115 685 165 722 214 722 c 0
 237 722 274 711 302 700 c 0
 329 689 347 680 343 680 c 1
 363 680 374 687 378 722 c 1
 442 722 l 1
 442 617 367 610 346 610 c 0
 323 610 305 622 285 634 c 0
 266 645 245 656 217 656 c 0
 212 656 180 657 180 609 c 1
EndSplineSet
EndChar

StartChar: b
Encoding: 98 98 76
Width: 556
Flags: HMW
HStem: -15 72<275 321 261.5 327.5> 458 72<243 331.5> 698 20G<58 146 146 146>
VStem: 58 81<216 312.5 216 718> 58 88<460 718 460 718 460 718> 419 90
LayerCount: 2
Fore
SplineSet
139 260 m 0
 139 172 153 146 165 128 c 0
 192 88 237 57 286 57 c 0
 356 57 427 118 427 260 c 0
 427 374 377 458 286 458 c 0
 195 458 139 365 139 260 c 0
58 0 m 1
 58 718 l 1
 146 718 l 1
 146 460 l 1
 148 460 l 1
 160 478 200 530 286 530 c 0
 426 530 517 409 517 260 c 0
 517 41 369 -15 286 -15 c 0
 264 -15 190 -9 142 65 c 1
 140 65 l 1
 140 0 l 1
 58 0 l 1
EndSplineSet
EndChar

StartChar: backslash
Encoding: 92 92 77
Width: 278
Flags: HMW
HStem: -19 21G<224 224 224 295> 717 20G<-17 54 54 54>
LayerCount: 2
Fore
SplineSet
224 -19 m 1
 -17 737 l 1
 54 737 l 1
 295 -19 l 1
 224 -19 l 1
EndSplineSet
EndChar

StartChar: bar
Encoding: 124 124 78
Width: 260
Flags: HMW
HStem: -209 21G<94 94 94 167> 717 20G<94 167 167 167>
VStem: 94 73<-209 737 -209 737>
LayerCount: 2
Fore
SplineSet
94 -209 m 1
 94 737 l 1
 167 737 l 1
 167 -209 l 1
 94 -209 l 1
EndSplineSet
EndChar

StartChar: braceleft
Encoding: 123 123 79
Width: 334
Flags: HMW
HStem: -196 74<248 292 248 292> 224 79<42 42> 648 74<248 292>
VStem: 132 72
LayerCount: 2
Fore
SplineSet
42 224 m 1
 42 303 l 1
 131 305 131 392 132 487 c 0
 132 632 150 722 292 722 c 1
 292 648 l 1
 204 648 206 574 206 487 c 0
 206 311 204 311 114 263 c 1
 189 228 206 154 206 40 c 0
 206 -114 204 -122 292 -122 c 1
 292 -196 l 1
 150 -196 131 -144 132 40 c 0
 131 134 131 222 42 224 c 1
EndSplineSet
EndChar

StartChar: braceright
Encoding: 125 125 80
Width: 334
Flags: HMW
HStem: -196 74<42 76.5 42 83.5> 223 79<292 292> 648 74<42 85.5>
VStem: 129 72<-66.5 -23 -102.5 65 431.5 551.5>
LayerCount: 2
Fore
SplineSet
42 -122 m 1
 111 -122 129 -110 129 -23 c 0
 129 153 129 215 219 263 c 1
 144 298 129 364 129 479 c 0
 129 624 129 648 42 648 c 1
 42 722 l 1
 196 722 201 628 201 479 c 0
 201 384 204 304 292 302 c 1
 292 223 l 1
 204 221 202 73 201 -23 c 0
 201 -182 125 -196 42 -196 c 1
 42 -122 l 1
EndSplineSet
EndChar

StartChar: bracketleft
Encoding: 91 91 81
Width: 278
Flags: HMW
HStem: -196 73<151 250 151 250> 649 73<151 250 151 151>
VStem: 63 88<-123 -123 -123 649> 63 187<-196 -123 649 722>
LayerCount: 2
Fore
SplineSet
151 -123 m 1
 250 -123 l 1
 250 -196 l 1
 63 -196 l 1
 63 722 l 1
 250 722 l 1
 250 649 l 1
 151 649 l 1
 151 -123 l 1
EndSplineSet
EndChar

StartChar: bracketright
Encoding: 93 93 82
Width: 278
Flags: HMW
HStem: -196 73<28 127 28 215 28 127> 649 73<28 127 28 215>
VStem: 28 187<-196 -123 -123 -123 649 722 -196 722> 127 88<-123 649 649 649>
LayerCount: 2
Fore
SplineSet
28 -123 m 1
 127 -123 l 1
 127 649 l 1
 28 649 l 1
 28 722 l 1
 215 722 l 1
 215 -196 l 1
 28 -196 l 1
 28 -123 l 1
EndSplineSet
EndChar

StartChar: breve
Encoding: 198 728 83
Width: 333
Flags: HMW
HStem: 595 65<134 200.5> 711 20G<13 77 77 77 257 321 321 321>
LayerCount: 2
Fore
SplineSet
13 731 m 1
 77 731 l 1
 81 712 95 660 167 660 c 0
 237 660 250 698 257 731 c 1
 321 731 l 1
 321 638 234 595 167 595 c 0
 101 595 13 636 13 731 c 1
EndSplineSet
EndChar

StartChar: brokenbar
Encoding: 294 166 84
Width: 260
Flags: HMW
HStem: -19 21G<94 94 94 167> 717 20G<94 167 167 167>
VStem: 94 73<-19 290 -19 290 427 737>
LayerCount: 2
Fore
SplineSet
94 -19 m 1
 94 290 l 1
 167 290 l 1
 167 -19 l 1
 94 -19 l 1
94 427 m 1
 94 737 l 1
 167 737 l 1
 167 427 l 1
 94 427 l 1
EndSplineSet
EndChar

StartChar: bullet
Encoding: 183 8226 85
Width: 350
Flags: HMW
HStem: 202 315<132 218>
VStem: 18 315<315 403.5>
LayerCount: 2
Fore
SplineSet
18 359 m 0
 18 448 89 517 175 517 c 0
 261 517 333 448 333 359 c 0
 333 271 261 202 175 202 c 0
 89 202 18 271 18 359 c 0
EndSplineSet
EndChar

StartChar: c
Encoding: 99 99 86
Width: 500
Flags: HMW
HStem: -15 72<206.5 290> 462 76<223.5 302>
VStem: 48 90 401 85<359 424.5>
LayerCount: 2
Fore
SplineSet
400 190 m 1
 487 179 l 1
 459 4 312 -15 268 -15 c 0
 97 -15 40 120 40 258 c 0
 40 474 172 538 275 538 c 0
 370 538 486 477 486 372 c 1
 401 359 l 1
 383 434 329 462 275 462 c 0
 138 462 130 319 130 258 c 0
 130 189 145 57 268 57 c 0
 380 57 397 164 400 190 c 1
EndSplineSet
EndChar

StartChar: caron
Encoding: 207 711 87
Width: 333
Flags: HMW
HStem: 593 21G<120 120 120 216> 714 20G<21 111 111 111 222 312 312 312>
LayerCount: 2
Fore
SplineSet
120 593 m 1
 21 734 l 1
 111 734 l 1
 170 647 l 1
 222 734 l 1
 312 734 l 1
 216 593 l 1
 120 593 l 1
EndSplineSet
EndChar

StartChar: ccedilla
Encoding: 295 231 88
Width: 500
Flags: HMW
HStem: -225 21G<155 218.5> -26 75<273 273> 463 75<199.5 290.5>
VStem: 30 89<235 291 235 324.5>
LayerCount: 2
Fore
SplineSet
211 -21 m 1
 99 0 30 100 30 252 c 0
 30 397 88 538 263 538 c 0
 371 538 452 484 467 369 c 1
 382 354 l 1
 365 433 318 463 263 463 c 0
 136 463 119 330 119 252 c 0
 119 218 118 49 261 49 c 0
 371 49 388 158 392 184 c 1
 477 173 l 1
 454 23 352 -20 273 -26 c 1
 267 -62 l 1
 300 -62 346 -83 346 -138 c 0
 346 -186 282 -225 155 -225 c 1
 157 -164 l 1
 200 -164 267 -157 266 -138 c 0
 264 -104 211 -99 195 -99 c 1
 211 -21 l 1
EndSplineSet
EndChar

StartChar: cedilla
Encoding: 203 184 89
Width: 333
Flags: HMW
HStem: -225 21G<85 152.5> -20 20G<134 199 199 199>
VStem: 96 103
LayerCount: 2
Fore
SplineSet
134 0 m 1
 199 0 l 1
 176 -61 l 1
 220 -66 259 -90 259 -133 c 0
 259 -180 209 -225 96 -225 c 0
 74 -225 67 -224 45 -220 c 1
 50 -163 l 1
 83 -169 178 -184 178 -133 c 0
 178 -101 127 -95 101 -95 c 1
 134 0 l 1
EndSplineSet
EndChar

StartChar: cent
Encoding: 162 162 90
Width: 556
Flags: HMW
HStem: -115 21G<203 203> -13 71<280 316.5 280 320> 459 72<255.5 314> 603 20G<361 361>
VStem: 51 90<235 293 235 379.5>
LayerCount: 2
Fore
SplineSet
205 86 m 1
 314 459 l 1
 163 472 141 330 141 256 c 0
 141 214 152 119 205 86 c 1
182 10 m 1
 107 46 51 130 51 256 c 0
 51 503 227 531 284 531 c 0
 290 531 302 531 333 527 c 1
 361 623 l 1
 414 607 l 1
 388 511 l 1
 477 472 491 399 498 366 c 1
 412 353 l 1
 408 373 400 408 366 436 c 1
 257 62 l 1
 266 60 273 58 287 58 c 0
 346 58 416 98 429 190 c 1
 513 180 l 1
 485 21 353 -13 287 -13 c 0
 264 -13 251 -10 238 -7 c 1
 203 -115 l 1
 148 -99 l 1
 182 10 l 1
EndSplineSet
EndChar

StartChar: circumflex
Encoding: 195 710 91
Width: 333
Flags: HMW
HStem: 593 21G<21 21 21 115 218 218 218 312> 714 20G<122 209 209 209>
LayerCount: 2
Fore
SplineSet
21 593 m 1
 122 734 l 1
 209 734 l 1
 312 593 l 1
 218 593 l 1
 169 680 l 1
 115 593 l 1
 21 593 l 1
EndSplineSet
EndChar

StartChar: colon
Encoding: 58 58 92
Width: 278
Flags: HMW
HStem: 0 99<87 191 87 191> 417 99<87 191 87 191>
VStem: 87 104<0 99 0 99 417 516>
LayerCount: 2
Fore
SplineSet
87 417 m 1
 87 516 l 1
 191 516 l 1
 191 417 l 1
 87 417 l 1
87 0 m 1
 87 99 l 1
 191 99 l 1
 191 0 l 1
 87 0 l 1
EndSplineSet
EndChar

StartChar: comma
Encoding: 44 44 93
Width: 278
Flags: HMW
HStem: -147 21G<110 110> 86 20G<88 190 190 190>
VStem: 88 102<2 106>
LayerCount: 2
Fore
SplineSet
88 2 m 1
 88 106 l 1
 190 106 l 1
 190 2 l 2
 190 -32 177 -125 110 -147 c 1
 87 -110 l 1
 133 -89 139 -40 139 2 c 1
 88 2 l 1
EndSplineSet
EndChar

StartChar: copyright
Encoding: 296 169 94
Width: 737
Flags: HMW
HStem: -19 63<277.5 454.5 277.5 472> 142 60<331.5 379.5 331.5 406> 516 56<317 374.5> 674 63<277.5 454.5>
VStem: -14 64<269 444 269 462> 168 70<303 394 303 422> 689 63<269 444>
LayerCount: 2
Fore
SplineSet
50 356 m 0
 50 182 189 44 366 44 c 0
 543 44 689 182 689 356 c 0
 689 532 543 674 366 674 c 0
 189 674 50 532 50 356 c 0
-14 356 m 0
 -14 568 156 737 366 737 c 0
 576 737 752 567 752 356 c 0
 752 148 578 -19 366 -19 c 0
 154 -19 -14 147 -14 356 c 0
492 298 m 1
 554 280 l 1
 531 185 446 142 366 142 c 0
 249 142 168 220 168 356 c 0
 168 488 238 572 366 572 c 0
 445 572 522 536 547 454 c 1
 486 440 l 1
 456 515 383 516 366 516 c 0
 268 516 238 432 238 356 c 0
 238 250 297 202 366 202 c 0
 393 202 470 212 492 298 c 1
EndSplineSet
EndChar

StartChar: currency
Encoding: 168 164 95
Width: 556
Flags: HMW
HStem: 99 21G<86 86 470 470> 134 84<258.5 297> 484 84<258.5 297 258.5 311.5> 583 20G<86 86 470 470>
LayerCount: 2
Fore
SplineSet
146 351 m 0
 146 277 204 218 278 218 c 0
 351 218 410 277 410 351 c 0
 410 427 345 484 278 484 c 0
 204 484 146 424 146 351 c 0
86 99 m 1
 28 160 l 1
 99 229 l 1
 68 279 62 325 62 351 c 0
 62 378 68 423 99 472 c 1
 28 542 l 1
 86 603 l 1
 157 532 l 1
 196 558 239 568 278 568 c 0
 316 568 360 558 399 532 c 1
 470 603 l 1
 528 542 l 1
 457 472 l 1
 488 423 494 378 494 351 c 0
 494 325 488 279 457 229 c 1
 528 160 l 1
 470 99 l 1
 399 170 l 1
 360 144 316 134 278 134 c 0
 239 134 196 144 157 170 c 1
 86 99 l 1
EndSplineSet
EndChar

StartChar: d
Encoding: 100 100 96
Width: 556
Flags: HMW
HStem: -15 72<229.5 264.5> 456 74<190 287.5 190 308.5> 698 20G<411 499 499 499>
VStem: 35 90<169.5 270 169.5 335.5> 400 88
LayerCount: 2
Fore
SplineSet
125 251 m 0
 125 88 204 57 255 57 c 0
 283 57 419 73 419 251 c 0
 419 352 362 456 255 456 c 0
 123 456 125 289 125 251 c 0
417 0 m 1
 417 66 l 1
 368 -12 274 -15 255 -15 c 0
 132 -15 35 85 35 251 c 0
 35 420 125 530 255 530 c 0
 320 530 382 500 409 459 c 1
 411 459 l 1
 411 718 l 1
 499 718 l 1
 499 0 l 1
 417 0 l 1
EndSplineSet
EndChar

StartChar: dagger
Encoding: 178 8224 97
Width: 556
Flags: HMW
HStem: -159 21G<234 234 234 322> 429 78<43 234 43 234 322 514> 698 20G<234 322 322 322>
VStem: 234 88<-159 429 -159 429 507 718>
LayerCount: 2
Fore
SplineSet
234 -159 m 1
 234 429 l 1
 43 429 l 1
 43 507 l 1
 234 507 l 1
 234 718 l 1
 322 718 l 1
 322 507 l 1
 514 507 l 1
 514 429 l 1
 322 429 l 1
 322 -159 l 1
 234 -159 l 1
EndSplineSet
EndChar

StartChar: daggerdbl
Encoding: 179 8225 98
Width: 556
Flags: HMW
HStem: -159 21G<234 322 234 234> 25 78<43 234 43 234 322 514> 456 78<43 234 43 234 322 514> 698 20G<234 322 322 322>
VStem: 234 88<-159 25 -159 25 103 456 534 718>
LayerCount: 2
Fore
SplineSet
43 25 m 1
 43 103 l 1
 234 103 l 1
 234 456 l 1
 43 456 l 1
 43 534 l 1
 234 534 l 1
 234 718 l 1
 322 718 l 1
 322 534 l 1
 514 534 l 1
 514 456 l 1
 322 456 l 1
 322 103 l 1
 514 103 l 1
 514 25 l 1
 322 25 l 1
 322 -159 l 1
 234 -159 l 1
 234 25 l 1
 43 25 l 1
EndSplineSet
EndChar

StartChar: degree
Encoding: 297 176 99
Width: 400
Flags: HMW
HStem: 411 57<175 223.5 175 239.5> 646 57<174.5 224>
VStem: 54 58<533 582 533 598> 288 58<533 582>
LayerCount: 2
Fore
SplineSet
112 558 m 0
 112 508 151 468 199 468 c 0
 248 468 288 508 288 558 c 0
 288 606 249 646 199 646 c 0
 150 646 112 606 112 558 c 0
54 558 m 0
 54 638 118 703 199 703 c 0
 281 703 346 637 346 558 c 0
 346 476 280 411 199 411 c 0
 119 411 54 476 54 558 c 0
EndSplineSet
EndChar

StartChar: dieresis
Encoding: 200 168 100
Width: 333
Flags: HMW
HStem: 604 102<40 130 40 130 203 293 40 203>
VStem: 40 90<604 706 604 706> 203 90<604 706 604 706>
LayerCount: 2
Fore
SplineSet
203 604 m 1
 203 706 l 1
 293 706 l 1
 293 604 l 1
 203 604 l 1
40 604 m 1
 40 706 l 1
 130 706 l 1
 130 604 l 1
 40 604 l 1
EndSplineSet
EndChar

StartChar: divide
Encoding: 298 247 101
Width: 584
Flags: HMW
HStem: -19 98<242 342 242 342> 217 82 427 97<242 342 242 342>
VStem: 242 100<-19 79 -19 79 427 524>
LayerCount: 2
Fore
SplineSet
242 -19 m 1
 242 79 l 1
 342 79 l 1
 342 -19 l 1
 242 -19 l 1
242 427 m 1
 242 524 l 1
 342 524 l 1
 342 427 l 1
 242 427 l 1
39 216 m 1
 39 298 l 1
 545 298 l 1
 545 216 l 1
 39 216 l 1
EndSplineSet
EndChar

StartChar: dollar
Encoding: 36 36 102
Width: 556
Flags: HMW
HStem: -115 21G<252 305 252 252> 755 20G<252 305 305 305>
VStem: 48 91 252 53<-115 -25 -25 -25 49 318 415 659 734 775> 428 92<141 230.5>
LayerCount: 2
Fore
SplineSet
305 49 m 1
 353 54 428 94 428 188 c 0
 428 273 371 297 305 318 c 1
 305 49 l 1
252 415 m 1
 252 660 l 1
 172 647 139 592 139 540 c 0
 139 498 151 444 252 415 c 1
32 190 m 1
 116 206 l 1
 119 177 145 60 252 49 c 1
 252 330 l 1
 124 338 45 465 48 538 c 0
 53 669 147 729 252 734 c 1
 252 775 l 1
 305 775 l 1
 305 734 l 1
 405 726 483 672 502 556 c 1
 408 543 l 1
 392 640 333 653 305 659 c 1
 305 404 l 1
 377 388 520 351 520 186 c 0
 520 80 447 -19 305 -24 c 1
 305 -115 l 1
 252 -115 l 1
 252 -25 l 1
 196 -17 45 0 32 190 c 1
EndSplineSet
EndChar

StartChar: dotaccent
Encoding: 199 729 103
Width: 333
Flags: HMW
HStem: 604 102<121 212 121 212>
VStem: 121 91<604 706 604 706>
LayerCount: 2
Fore
SplineSet
121 604 m 1
 121 706 l 1
 212 706 l 1
 212 604 l 1
 121 604 l 1
EndSplineSet
EndChar

StartChar: dotlessi
Encoding: 245 305 104
Width: 278
Flags: HMW
HStem: 0 21G<95 95 95 183> 503 20G<95 183 183 183>
VStem: 95 88<0 523 0 523>
LayerCount: 2
Fore
SplineSet
95 0 m 1
 95 523 l 1
 183 523 l 1
 183 0 l 1
 95 0 l 1
EndSplineSet
EndChar

StartChar: e
Encoding: 101 101 105
Width: 556
Flags: HMW
HStem: -15 72<243 331.5 243 346> 237 72<130 426 135 426 135 516> 463 75<233 319 203 328>
VStem: 56 90 399 90
LayerCount: 2
Fore
SplineSet
135 309 m 1
 426 309 l 1
 426 385 374 463 282 463 c 0
 184 463 140 377 135 309 c 1
130 237 m 1
 137 113 204 57 282 57 c 0
 381 57 412 137 423 167 c 1
 513 156 l 1
 487 58 410 -15 282 -15 c 0
 121 -15 40 95 40 255 c 0
 40 413 124 538 282 538 c 0
 356 538 516 501 516 237 c 1
 130 237 l 1
EndSplineSet
EndChar

StartChar: eacute
Encoding: 299 233 106
Width: 556
Flags: HMW
HStem: -15 72<242 314> 237 72<140 416 145 416 145 506> 458 72<282 282> 597 137<223 403 288 295>
VStem: 416 90<237 309>
LayerCount: 2
Fore
SplineSet
145 309 m 1
 416 309 l 1
 411 384 379 459 282 458 c 0
 179 459 156 376 145 309 c 1
140 237 m 1
 153 113 199 57 282 57 c 0
 387 57 400 138 417 167 c 1
 502 156 l 1
 489 107 464 65 425 34 c 0
 388 3 346 -15 282 -15 c 0
 202 -15 151 12 110 60 c 0
 70 108 50 175 50 255 c 0
 55 413 118 529 282 530 c 0
 305 530 361 525 415 487 c 0
 469 450 506 373 506 237 c 1
 140 237 l 1
223 597 m 1
 288 734 l 1
 403 734 l 1
 295 597 l 1
 223 597 l 1
EndSplineSet
EndChar

StartChar: ecircumflex
Encoding: 300 234 107
Width: 556
Flags: HMW
HStem: -15 72<242 314> 237 72<140 416 145 416 145 506> 458 72<282 282> 714 20G<230 323 323 323>
VStem: 416 90<237 309>
LayerCount: 2
Fore
SplineSet
145 309 m 1
 416 309 l 1
 411 384 379 459 282 458 c 0
 179 459 156 376 145 309 c 1
140 237 m 1
 153 113 199 57 282 57 c 0
 387 57 400 138 417 167 c 1
 502 156 l 1
 489 107 464 65 425 34 c 0
 388 3 346 -15 282 -15 c 0
 202 -15 151 12 110 60 c 0
 70 108 50 175 50 255 c 0
 55 413 118 529 282 530 c 0
 305 530 361 525 415 487 c 0
 469 450 506 373 506 237 c 1
 140 237 l 1
124 597 m 1
 230 734 l 1
 323 734 l 1
 433 597 l 1
 333 597 l 1
 280 680 l 1
 224 597 l 1
 124 597 l 1
EndSplineSet
EndChar

StartChar: edieresis
Encoding: 301 235 108
Width: 556
Flags: HMW
HStem: -15 72<242 314> 237 72<140 416 145 416 145 506> 458 72<230.5 293.5 200 330.5> 606 100<143 233 143 233 324 414 143 324>
VStem: 282 0<57 57 458 458 530 530 4.29497e+09 4.29497e+09> 416 90<237 309>
LayerCount: 2
Fore
SplineSet
145 309 m 1
 416 309 l 1
 411 385 379 458 282 458 c 0
 179 458 156 377 145 309 c 1
140 237 m 1
 153 112 198 57 282 57 c 0
 386 57 401 138 417 167 c 1
 502 156 l 1
 489 107 464 65 425 34 c 0
 388 3 346 -15 282 -15 c 0
 202 -15 151 12 110 60 c 0
 70 108 50 175 50 255 c 0
 55 412 118 530 282 530 c 0
 305 530 362 524 415 487 c 0
 468 450 506 373 506 237 c 1
 140 237 l 1
324 606 m 1
 324 706 l 1
 414 706 l 1
 414 606 l 1
 324 606 l 1
143 606 m 1
 143 706 l 1
 233 706 l 1
 233 606 l 1
 143 606 l 1
EndSplineSet
EndChar

StartChar: egrave
Encoding: 302 232 109
Width: 556
Flags: HMW
HStem: -15 72<242 314> 237 72<140 416 145 416 145 506> 458 72<282 282> 598 136<262 262 262 269 154 334>
VStem: 416 90<237 309>
LayerCount: 2
Fore
SplineSet
262 598 m 1
 154 734 l 1
 269 734 l 1
 334 598 l 1
 262 598 l 1
145 309 m 1
 416 309 l 1
 411 384 379 459 282 458 c 0
 179 459 156 376 145 309 c 1
140 237 m 1
 153 113 199 57 282 57 c 0
 387 57 400 138 417 167 c 1
 502 156 l 1
 489 107 464 65 425 34 c 0
 388 3 346 -15 282 -15 c 0
 202 -15 151 12 110 60 c 0
 70 108 50 175 50 255 c 0
 55 413 118 529 282 530 c 0
 305 530 361 525 415 487 c 0
 469 450 506 373 506 237 c 1
 140 237 l 1
EndSplineSet
EndChar

StartChar: eight
Encoding: 56 56 110
Width: 556
Flags: HMW
HStem: -19 71<232 317.5 232 350.5> 338 36 338 70<248 310.5 248 315> 632 71<239.5 310>
VStem: 54 92 411 92
LayerCount: 2
Fore
SplineSet
130 196 m 0
 130 117 187 52 277 52 c 0
 358 52 425 106 425 194 c 0
 425 282 355 338 275 338 c 0
 181 338 130 268 130 196 c 0
160 526 m 0
 160 448 219 408 277 408 c 0
 344 408 395 458 395 521 c 0
 395 585 344 632 276 632 c 0
 203 632 160 581 160 526 c 0
177 374 m 1
 177 376 l 1
 146 386 68 417 68 523 c 0
 68 621 143 703 275 703 c 0
 411 703 487 615 487 521 c 0
 487 424 412 387 380 376 c 1
 380 374 l 1
 460 350 517 292 517 194 c 0
 517 77 424 -19 277 -19 c 0
 129 -19 38 77 38 197 c 0
 38 250 87 374 177 374 c 1
EndSplineSet
EndChar

StartChar: ellipsis
Encoding: 188 8230 111
Width: 1000
Flags: HMW
HStem: 0 106<115 215 115 215 448 548 785 885>
VStem: 115 100<0 106 0 106> 448 100<0 106 0 106> 785 100<0 106 0 106>
LayerCount: 2
Fore
SplineSet
785 0 m 1
 785 106 l 1
 885 106 l 1
 885 0 l 1
 785 0 l 1
448 0 m 1
 448 106 l 1
 548 106 l 1
 548 0 l 1
 448 0 l 1
115 0 m 1
 115 106 l 1
 215 106 l 1
 215 0 l 1
 115 0 l 1
EndSplineSet
EndChar

StartChar: emdash
Encoding: 208 8212 112
Width: 1000
Flags: HMW
HStem: 240 73<0 1000 0 1000>
LayerCount: 2
Fore
SplineSet
0 240 m 1
 0 313 l 1
 1000 313 l 1
 1000 240 l 1
 0 240 l 1
EndSplineSet
EndChar

StartChar: endash
Encoding: 177 8211 113
Width: 556
Flags: HMW
HStem: 240 73<0 556 0 556>
LayerCount: 2
Fore
SplineSet
0 240 m 1
 0 313 l 1
 556 313 l 1
 556 240 l 1
 0 240 l 1
EndSplineSet
EndChar

StartChar: equal
Encoding: 61 61 114
Width: 584
Flags: HMW
HStem: 115 80<39 545 39 545> 310 80<39 545 39 545>
LayerCount: 2
Fore
SplineSet
39 115 m 1
 39 195 l 1
 545 195 l 1
 545 115 l 1
 39 115 l 1
39 310 m 1
 39 390 l 1
 545 390 l 1
 545 310 l 1
 39 310 l 1
EndSplineSet
EndChar

StartChar: eth
Encoding: 303 240 115
Width: 556
Flags: HMW
HStem: -15 74<243 292.5 243 332.5> 452 79<229 279 208.5 307.5> 717 20G<151 259 259 259 427 427>
VStem: 35 91<164.5 326.5 164.5 364> 431 91<178 329.5 173 334.5>
LayerCount: 2
Fore
SplineSet
126 256 m 0
 126 73 227 59 259 59 c 0
 326 59 431 100 431 256 c 0
 431 413 355 452 260 452 c 0
 198 452 126 397 126 256 c 0
173 556 m 1
 147 605 l 1
 254 654 l 1
 212 695 194 707 151 737 c 1
 259 737 l 1
 291 712 299 707 321 686 c 1
 427 737 l 1
 452 688 l 1
 363 645 l 1
 461 529 522 403 522 256 c 0
 522 90 406 -15 259 -15 c 0
 164 -15 35 35 35 256 c 0
 35 472 163 531 254 531 c 0
 304 531 336 519 364 506 c 1
 342 550 330 571 293 613 c 1
 173 556 l 1
EndSplineSet
EndChar

StartChar: exclam
Encoding: 33 33 116
Width: 278
Flags: HMW
HStem: 0 100<90 187 90 187> 344 100 698 20G<90 187 187 187> 722 20G
VStem: 90 97<0 100 0 100 559 718> 101 76
LayerCount: 2
Fore
SplineSet
113 180 m 1
 90 559 l 1
 90 718 l 1
 187 718 l 1
 187 559 l 1
 167 180 l 1
 113 180 l 1
90 0 m 1
 90 100 l 1
 187 100 l 1
 187 0 l 1
 90 0 l 1
EndSplineSet
EndChar

StartChar: exclamdown
Encoding: 161 161 117
Width: 333
Flags: HMW
HStem: -195 21G<118 215 118 118> 423 100<118 215 118 215>
VStem: 118 97<-195 -39 -195 -39 423 523> 127 77
LayerCount: 2
Fore
SplineSet
118 -39 m 1
 137 340 l 1
 193 340 l 1
 215 -39 l 1
 215 -195 l 1
 118 -195 l 1
 118 -39 l 1
118 423 m 1
 118 523 l 1
 215 523 l 1
 215 423 l 1
 118 423 l 1
EndSplineSet
EndChar

StartChar: f
Encoding: 102 102 118
Width: 278
Flags: HMW
HStem: 0 21G<76 76 76 164> 450 68<14 76 14 76 164 262> 708 20G<147.5 227.5>
VStem: 76 88<0 450 0 450 518 567>
LayerCount: 2
Fore
SplineSet
76 0 m 1
 76 450 l 1
 14 450 l 1
 14 518 l 1
 76 518 l 1
 76 567 l 2
 76 617 76 728 219 728 c 0
 236 728 261 719 261 719 c 1
 248 642 l 1
 192 663 164 622 164 567 c 2
 164 518 l 1
 262 518 l 1
 262 450 l 1
 164 450 l 1
 164 0 l 1
 76 0 l 1
EndSplineSet
EndChar

StartChar: fi
Encoding: 174 64257 119
Width: 500
Flags: HMW
HStem: 0 21G<89 89 89 177 346 434 346 346> 450 68<14 89 14 89 177 278> 642 74<303 317>
VStem: 89 88<0 450 0 450 518 569 569 571> 346 88<0 518 0 518 616 713>
LayerCount: 2
Fore
SplineSet
346 616 m 1
 346 713 l 1
 434 713 l 1
 434 616 l 1
 346 616 l 1
346 0 m 1
 346 518 l 1
 434 518 l 1
 434 0 l 1
 346 0 l 1
89 0 m 1
 89 450 l 1
 14 450 l 1
 14 518 l 1
 89 518 l 1
 89 569 l 2
 89 630 132 727 243 727 c 0
 266 727 289 725 317 716 c 1
 303 642 l 1
 218 657 177 631 177 571 c 2
 177 518 l 1
 278 518 l 1
 278 450 l 1
 177 450 l 1
 177 0 l 1
 89 0 l 1
EndSplineSet
EndChar

StartChar: five
Encoding: 53 53 120
Width: 556
Flags: HMW
HStem: -19 71<252 314.5 252 347> 384 77<240 306> 632 84
VStem: 406 96
LayerCount: 2
Fore
SplineSet
32 178 m 1
 126 185 l 1
 146 59 238 52 266 52 c 0
 363 52 418 134 418 225 c 0
 418 331 348 384 264 384 c 0
 203 384 156 354 132 316 c 1
 47 326 l 1
 119 688 l 1
 480 688 l 1
 480 604 l 1
 190 604 l 1
 150 417 l 1
 173 442 215 461 265 461 c 0
 369 461 514 380 514 225 c 0
 514 98 428 -19 266 -19 c 0
 176 -19 46 24 32 178 c 1
EndSplineSet
EndChar

StartChar: fl
Encoding: 175 64258 121
Width: 500
Flags: HMW
HStem: 0 21G<89 89 89 177 344 432 344 344> 450 68<14 89 14 89 177 278> 642 74<303 317>
VStem: 89 88<0 450 0 450 518 569 569 571> 344 88<0 708 0 708>
LayerCount: 2
Fore
SplineSet
344 0 m 1
 344 708 l 1
 432 708 l 1
 432 0 l 1
 344 0 l 1
89 0 m 1
 89 450 l 1
 14 450 l 1
 14 518 l 1
 89 518 l 1
 89 569 l 2
 89 630 132 727 243 727 c 0
 266 727 289 725 317 716 c 1
 303 642 l 1
 218 657 177 631 177 571 c 2
 177 518 l 1
 278 518 l 1
 278 450 l 1
 177 450 l 1
 177 0 l 1
 89 0 l 1
EndSplineSet
EndChar

StartChar: florin
Encoding: 166 402 122
Width: 556
Flags: HMW
HStem: -207 21G<76.5 119.5> 447 68<143 230 132 242 331 419> 655 82<386.5 420.5>
LayerCount: 2
Fore
SplineSet
5 -119 m 1
 43 -127 64 -130 80 -130 c 0
 111 -130 135 -99 142 -55 c 2
 230 447 l 1
 132 447 l 1
 143 515 l 1
 242 515 l 1
 254 576 l 2
 267 637 298 737 410 737 c 0
 449 737 466 728 501 718 c 1
 484 643 l 1
 448 651 431 655 410 655 c 0
 363 655 354 628 344 576 c 2
 331 515 l 1
 431 515 l 1
 419 447 l 1
 319 447 l 1
 225 -80 l 2
 210 -167 159 -207 80 -207 c 0
 73 -207 52 -207 -11 -195 c 1
 5 -119 l 1
EndSplineSet
EndChar

StartChar: four
Encoding: 52 52 123
Width: 556
Flags: HMW
HStem: 0 21G<338 426 338 338> 169 79<25 25 112 338 426 523> 683 20G<354 426 426 426>
VStem: 287 88
LayerCount: 2
Fore
SplineSet
112 248 m 1
 338 248 l 1
 338 567 l 1
 335 567 l 1
 112 248 l 1
25 169 m 1
 25 248 l 1
 354 703 l 1
 426 703 l 1
 426 248 l 1
 523 248 l 1
 523 169 l 1
 426 169 l 1
 426 0 l 1
 338 0 l 1
 338 169 l 1
 25 169 l 1
EndSplineSet
EndChar

StartChar: fraction
Encoding: 164 8260 124
Width: 167
Flags: HMW
HStem: -19 21G<-166 -89 -166 -166> 683 20G<257 333 333 333>
LayerCount: 2
Fore
SplineSet
-89 -19 m 1
 -166 -19 l 1
 257 703 l 1
 333 703 l 1
 -89 -19 l 1
EndSplineSet
EndChar

StartChar: g
Encoding: 103 103 125
Width: 556
Flags: HMW
HStem: -220 73<233.5 339.5 214.5 355.5> -11 72<215.5 286.5> 466 72<227 280.5 185 296.5>
VStem: 64 90 410 89<5.5 57> 417 82<204.5 326>
LayerCount: 2
Fore
SplineSet
130 252 m 0
 130 190 165 61 266 61 c 0
 381 61 417 157 417 252 c 0
 417 400 327 466 266 466 c 0
 188 466 130 377 130 252 c 0
62 -54 m 1
 147 -67 l 1
 151 -94 163 -147 266 -147 c 0
 413 -147 410 -46 410 57 c 1
 361 -1 307 -11 266 -11 c 0
 121 -11 40 112 40 252 c 0
 40 378 104 538 266 538 c 0
 295 538 361 534 416 463 c 1
 418 463 l 1
 418 525 l 1
 499 525 l 1
 499 59 l 2
 499 -110 445 -220 266 -220 c 0
 201 -220 58 -202 62 -54 c 1
EndSplineSet
EndChar

StartChar: germandbls
Encoding: 251 223 126
Width: 611
Flags: HMW
HStem: -15 72<376.5 415.5 376.5 447> 656 72<220.5 306>
VStem: 67 88<0 490 0 566> 297 90<349 402.5 349 405.5> 376 85<553 601> 481 90<119 181.5>
LayerCount: 2
Fore
SplineSet
67 0 m 1
 67 490 l 2
 67 642 139 728 280 728 c 0
 397 728 461 650 461 579 c 0
 461 524 387 430 387 375 c 0
 387 323 571 270 571 142 c 0
 571 56 501 -15 393 -15 c 0
 284 -15 232 66 215 102 c 1
 291 138 l 1
 328 69 362 57 391 57 c 0
 440 57 481 96 481 142 c 0
 481 221 297 304 297 375 c 0
 297 436 376 527 376 579 c 0
 376 623 334 656 278 656 c 0
 163 656 155 557 155 490 c 2
 155 0 l 1
 67 0 l 1
EndSplineSet
EndChar

StartChar: grave
Encoding: 193 96 127
Width: 333
Flags: HMW
HStem: 591 21G 716 20G
LayerCount: 2
Fore
SplineSet
149 593 m 1
 14 734 l 1
 119 734 l 1
 211 593 l 1
 149 593 l 1
EndSplineSet
EndChar

StartChar: greater
Encoding: 62 62 128
Width: 584
Flags: HMW
HStem: 11 21G<48 48> 475 20G<48 48>
LayerCount: 2
Fore
SplineSet
48 11 m 1
 48 98 l 1
 438 252 l 1
 48 408 l 1
 48 495 l 1
 536 293 l 1
 536 211 l 1
 48 11 l 1
EndSplineSet
EndChar

StartChar: guillemotleft
Encoding: 171 171 129
Width: 612
Flags: HMW
HStem: 130 21G<255 255 255 333 425 505 425 425> 515 20G<255 333 333 333 425 505 505 505>
LayerCount: 2
Fore
SplineSet
425 130 m 1
 278 332 l 1
 425 535 l 1
 505 535 l 1
 383 332 l 1
 505 130 l 1
 425 130 l 1
255 130 m 1
 108 332 l 1
 255 535 l 1
 333 535 l 1
 213 332 l 1
 333 130 l 1
 255 130 l 1
EndSplineSet
EndChar

StartChar: guillemotright
Encoding: 187 187 130
Width: 612
Flags: HMW
HStem: 130 21G<107 107 107 186 277 277 277 358> 515 20G<107 186 186 186 277 358 358 358>
LayerCount: 2
Fore
SplineSet
107 130 m 1
 228 332 l 1
 107 535 l 1
 186 535 l 1
 334 332 l 1
 186 130 l 1
 107 130 l 1
277 130 m 1
 398 332 l 1
 277 535 l 1
 358 535 l 1
 505 332 l 1
 358 130 l 1
 277 130 l 1
EndSplineSet
EndChar

StartChar: guilsinglleft
Encoding: 172 8249 131
Width: 333
Flags: HMW
HStem: 130 21G<215 215 215 269> 515 20G<215 269 269 269>
LayerCount: 2
Fore
SplineSet
215 130 m 1
 97 332 l 1
 215 535 l 1
 269 535 l 1
 184 332 l 1
 269 130 l 1
 215 130 l 1
EndSplineSet
EndChar

StartChar: guilsinglright
Encoding: 173 8250 132
Width: 366
Flags: HMW
HStem: 130 21G<97 97 97 153> 515 20G<97 153 153 153>
LayerCount: 2
Fore
SplineSet
97 130 m 1
 184 334 l 1
 97 535 l 1
 153 535 l 1
 269 334 l 1
 153 130 l 1
 97 130 l 1
EndSplineSet
EndChar

StartChar: h
Encoding: 104 104 133
Width: 556
Flags: HMW
HStem: 0 21G<65 65 65 153 403 403 403 491> 454 76<278.5 351.5> 698 20G<65 153 153 153>
VStem: 65 88<0 283 459 718> 403 88<0 327 0 342>
LayerCount: 2
Fore
SplineSet
65 0 m 1
 65 718 l 1
 153 718 l 1
 153 459 l 1
 210 524 260 530 297 530 c 0
 425 530 491 443 491 327 c 2
 491 0 l 1
 403 0 l 1
 403 327 l 2
 403 357 406 454 297 454 c 0
 192 454 153 365 153 283 c 2
 153 0 l 1
 65 0 l 1
EndSplineSet
EndChar

StartChar: hungarumlaut
Encoding: 205 733 134
Width: 333
Flags: HMW
HStem: 593 141<31 244 31 244 196 196 196 244 129 258>
LayerCount: 2
Fore
SplineSet
31 593 m 1
 129 734 l 1
 244 734 l 1
 93 593 l 1
 31 593 l 1
196 593 m 1
 294 734 l 1
 409 734 l 1
 258 593 l 1
 196 593 l 1
EndSplineSet
EndChar

StartChar: hyphen
Encoding: 45 45 135
Width: 333
Flags: HMW
HStem: 232 90<44 289 44 289>
LayerCount: 2
Fore
SplineSet
44 232 m 1
 44 322 l 1
 289 322 l 1
 289 232 l 1
 44 232 l 1
EndSplineSet
EndChar

StartChar: i
Encoding: 105 105 136
Width: 222
Flags: HMW
HStem: 0 21G<67 67 67 155> 621 97<67 155 67 155>
VStem: 144 88
LayerCount: 2
Fore
SplineSet
67 621 m 1
 67 718 l 1
 155 718 l 1
 155 621 l 1
 67 621 l 1
67 0 m 1
 67 516 l 1
 155 516 l 1
 155 0 l 1
 67 0 l 1
EndSplineSet
EndChar

StartChar: iacute
Encoding: 304 237 137
Width: 278
Flags: HMW
HStem: 0 21G<95 95 95 183> 714 20G<147 262 262 262>
VStem: 95 88<0 517 0 517>
LayerCount: 2
Fore
SplineSet
95 0 m 1
 95 517 l 1
 183 517 l 1
 183 0 l 1
 95 0 l 1
65 591 m 1
 147 734 l 1
 262 734 l 1
 136 591 l 1
 65 591 l 1
EndSplineSet
EndChar

StartChar: icircumflex
Encoding: 305 238 138
Width: 278
Flags: HMW
HStem: 0 21G<95 95 95 183> 597 137<-6 184 91 93 91 184 91 285>
VStem: 95 88<0 517 0 517>
LayerCount: 2
Fore
SplineSet
95 0 m 1
 95 517 l 1
 183 517 l 1
 183 0 l 1
 95 0 l 1
-6 597 m 1
 91 734 l 1
 184 734 l 1
 285 597 l 1
 184 597 l 1
 141 680 l 1
 93 597 l 1
 -6 597 l 1
EndSplineSet
EndChar

StartChar: idieresis
Encoding: 306 239 139
Width: 278
Flags: HMW
HStem: 0 21G<95 95 95 183> 606 100<13 103 13 103 176 266 13 176>
VStem: 13 90<606 706 606 706> 95 88<0 517 0 517> 176 90<606 706 606 706>
LayerCount: 2
Fore
SplineSet
176 606 m 1
 176 706 l 1
 266 706 l 1
 266 606 l 1
 176 606 l 1
13 606 m 1
 13 706 l 1
 103 706 l 1
 103 606 l 1
 13 606 l 1
95 0 m 1
 95 517 l 1
 183 517 l 1
 183 0 l 1
 95 0 l 1
EndSplineSet
EndChar

StartChar: igrave
Encoding: 307 236 140
Width: 278
Flags: HMW
HStem: 0 21G<95 95 95 183> 714 20G<7 122 122 122>
VStem: 95 88<0 517 0 517>
LayerCount: 2
Fore
SplineSet
95 0 m 1
 95 517 l 1
 183 517 l 1
 183 0 l 1
 95 0 l 1
131 598 m 1
 7 734 l 1
 122 734 l 1
 204 598 l 1
 131 598 l 1
EndSplineSet
EndChar

StartChar: j
Encoding: 106 106 141
Width: 222
Flags: HMW
HStem: -210 21G<34.5 83.5> 621 97<67 155 67 155>
VStem: 67 88<-28 517 621 718>
LayerCount: 2
Fore
SplineSet
67 621 m 1
 67 718 l 1
 155 718 l 1
 155 621 l 1
 67 621 l 1
1 -126 m 1
 42 -136 67 -122 67 -28 c 2
 67 517 l 1
 155 517 l 1
 155 -28 l 2
 155 -150 124 -210 43 -210 c 0
 26 -210 7 -207 -16 -201 c 1
 1 -126 l 1
EndSplineSet
EndChar

StartChar: k
Encoding: 107 107 142
Width: 500
Flags: HMW
HStem: 0 21G<67 67 67 155 393 393 393 501> 698 20G<67 155 155 155>
VStem: 67 88<0 206 308 718>
LayerCount: 2
Fore
SplineSet
67 0 m 1
 67 718 l 1
 155 718 l 1
 155 308 l 1
 364 518 l 1
 478 518 l 1
 280 326 l 1
 501 0 l 1
 393 0 l 1
 218 265 l 1
 155 206 l 1
 155 0 l 1
 67 0 l 1
EndSplineSet
EndChar

StartChar: l
Encoding: 108 108 143
Width: 222
Flags: HMW
HStem: 0 21G<67 67 67 155> 698 20G<67 155 155 155>
VStem: 67 88<0 718 0 718>
LayerCount: 2
Fore
SplineSet
67 0 m 1
 67 718 l 1
 155 718 l 1
 155 0 l 1
 67 0 l 1
EndSplineSet
EndChar

StartChar: less
Encoding: 60 60 144
Width: 584
Flags: HMW
HStem: 11 21G<536 536> 475 20G<536 536>
LayerCount: 2
Fore
SplineSet
48 213 m 1
 48 295 l 1
 536 495 l 1
 536 408 l 1
 146 254 l 1
 536 98 l 1
 536 11 l 1
 48 213 l 1
EndSplineSet
EndChar

StartChar: logicalnot
Encoding: 308 172 145
Width: 584
Flags: HMW
HStem: 108 21G<442 525 442 442>
LayerCount: 2
Fore
SplineSet
39 308 m 1
 39 390 l 1
 525 390 l 1
 525 108 l 1
 442 108 l 1
 442 308 l 1
 39 308 l 1
EndSplineSet
EndChar

StartChar: lslash
Encoding: 248 322 146
Width: 222
Flags: HMW
HStem: 0 21G<67 67 67 155> 698 20G<67 155 155 155>
VStem: 67 88<0 282 282 282 434 718>
LayerCount: 2
Fore
SplineSet
67 0 m 1
 67 282 l 1
 -20 210 l 1
 -20 287 l 1
 67 359 l 1
 67 718 l 1
 155 718 l 1
 155 434 l 1
 242 509 l 1
 242 432 l 1
 155 357 l 1
 155 0 l 1
 67 0 l 1
EndSplineSet
EndChar

StartChar: m
Encoding: 109 109 147
Width: 833
Flags: HMW
HStem: 0 21G<65 65 65 153 373 373 373 461 681 681 681 769> 462 76<242.5 317 242.5 323 544 634.5>
VStem: 65 88<0 269 0 518> 373 88<0 301 0 337 0 361.5> 681 88<0 327 327 351 0 352>
LayerCount: 2
Fore
SplineSet
65 0 m 1
 65 518 l 1
 144 518 l 1
 144 446 l 1
 146 447 l 1
 174 493 205 538 280 538 c 0
 354 538 427 507 448 447 c 1
 466 475 491 538 588 538 c 0
 748 538 769 388 769 351 c 2
 769 0 l 1
 681 0 l 1
 681 327 l 2
 681 377 681 462 588 462 c 0
 500 462 461 382 461 301 c 2
 461 0 l 1
 373 0 l 1
 373 337 l 2
 373 386 366 462 280 462 c 0
 170 462 153 334 153 269 c 2
 153 0 l 1
 65 0 l 1
EndSplineSet
EndChar

StartChar: macron
Encoding: 197 175 148
Width: 333
Flags: HMW
HStem: 627 57<10 323 10 323>
LayerCount: 2
Fore
SplineSet
10 627 m 1
 10 684 l 1
 323 684 l 1
 323 627 l 1
 10 627 l 1
EndSplineSet
EndChar

StartChar: minus
Encoding: 309 8722 149
Width: 584
Flags: HW
LayerCount: 2
Fore
SplineSet
39 216 m 1
 39 289 l 1
 545 289 l 1
 545 216 l 1
 39 216 l 1
EndSplineSet
EndChar

StartChar: mu
Encoding: 310 181 150
Width: 556
Flags: HMW
HStem: -207 21G<68 157 68 68> -12 79<244.5 322> 0 67 503 20G<68 156 156 156 401 489 489 489>
VStem: 68 88<244.5 299 299 523> 401 88<298 523 0 523>
LayerCount: 2
Fore
SplineSet
159 52 m 1
 157 52 l 1
 157 -207 l 1
 68 -207 l 1
 68 523 l 1
 156 523 l 1
 156 299 l 2
 156 190 156 67 281 67 c 0
 400 67 401 174 401 298 c 2
 401 523 l 1
 489 523 l 1
 489 0 l 1
 411 0 l 1
 411 61 l 1
 409 61 l 1
 393 34 363 -12 281 -12 c 0
 208 -12 179 24 159 52 c 1
EndSplineSet
EndChar

StartChar: multiply
Encoding: 311 215 151
Width: 584
Flags: HMW
HStem: 0 21G<109 109 475 475> 486 20G<110 110>
VStem: 40 70 475 69
LayerCount: 2
Fore
SplineSet
39 70 m 1
 222 252 l 1
 40 434 l 1
 110 506 l 1
 294 321 l 1
 475 505 l 1
 544 434 l 1
 364 253 l 1
 545 71 l 1
 475 0 l 1
 293 183 l 1
 109 0 l 1
 39 70 l 1
EndSplineSet
EndChar

StartChar: n
Encoding: 110 110 152
Width: 556
Flags: HMW
HStem: 0 21G<65 65 65 153 403 403 403 491> 462 76<276.5 348>
VStem: 65 88<0 283 0 518> 403 88<0 315 0 337.5>
LayerCount: 2
Fore
SplineSet
65 0 m 1
 65 518 l 1
 144 518 l 1
 144 445 l 1
 146 445 l 1
 197 523 259 538 294 538 c 0
 426 538 491 437 491 315 c 2
 491 0 l 1
 403 0 l 1
 403 315 l 2
 403 360 402 462 294 462 c 0
 186 462 153 368 153 283 c 2
 153 0 l 1
 65 0 l 1
EndSplineSet
EndChar

StartChar: nine
Encoding: 57 57 153
Width: 556
Flags: HMW
HStem: -19 71<251.5 348 222 392> 231 76<232 313.5> 636 73
VStem: 59 90 414 97
LayerCount: 2
Fore
SplineSet
132 459 m 0
 132 366 193 307 271 307 c 0
 364 307 417 376 417 459 c 0
 417 548 354 630 271 630 c 0
 187 630 132 551 132 459 c 0
55 156 m 1
 139 163 l 1
 144 136 173 52 271 52 c 0
 425 52 428 256 427 324 c 1
 425 324 l 1
 401 284 356 231 271 231 c 0
 161 231 42 312 42 459 c 0
 42 599 139 703 271 703 c 0
 453 703 514 564 514 359 c 0
 514 281 513 -19 271 -19 c 0
 232 -19 76 -11 55 156 c 1
EndSplineSet
EndChar

StartChar: ntilde
Encoding: 312 241 154
Width: 556
Flags: HMW
HStem: 0 21G<65 65 65 153 403 403 403 491> 454 76<276.5 348> 611 113 703 20G<189.5 225.5>
VStem: 65 88<0 302 0 518> 403 88<0 302 0 324.5>
LayerCount: 2
Fore
SplineSet
115 611 m 1
 115 688 165 723 214 723 c 0
 237 723 267 714 292 703 c 0
 319 692 338 682 343 682 c 0
 363 682 374 689 378 724 c 1
 442 724 l 1
 437 617 368 612 346 612 c 0
 329 612 309 623 286 634 c 0
 262 646 237 658 217 658 c 0
 212 658 180 659 180 611 c 1
 115 611 l 1
65 0 m 1
 65 518 l 1
 144 518 l 1
 144 445 l 1
 146 445 l 1
 197 522 259 530 294 530 c 0
 434 530 491 435 491 302 c 2
 491 0 l 1
 403 0 l 1
 403 302 l 2
 403 347 402 454 294 454 c 0
 186 454 153 386 153 302 c 2
 153 0 l 1
 65 0 l 1
EndSplineSet
EndChar

StartChar: numbersign
Encoding: 35 35 155
Width: 556
Flags: HMW
HStem: 0 21G<64 64 64 133 277 277 277 347> 193 64<28 104 28 117 28 173 182 318 401 529> 423 67<28 152 28 165 449 529> 668 20G<206 275 275 275 420 488 488 488>
VStem: 28 501<193 257 193 257 423 490 193 490>
LayerCount: 2
Fore
SplineSet
182 257 m 1
 335 257 l 1
 371 424 l 1
 217 424 l 1
 182 257 l 1
64 0 m 1
 104 193 l 1
 28 193 l 1
 28 257 l 1
 117 257 l 1
 152 423 l 1
 28 423 l 1
 28 490 l 1
 165 490 l 1
 206 688 l 1
 275 688 l 1
 235 490 l 1
 379 490 l 1
 420 688 l 1
 488 688 l 1
 449 490 l 1
 529 490 l 1
 529 423 l 1
 435 423 l 1
 401 257 l 1
 529 257 l 1
 529 193 l 1
 387 193 l 1
 347 0 l 1
 277 0 l 1
 318 193 l 1
 173 193 l 1
 133 0 l 1
 64 0 l 1
EndSplineSet
EndChar

StartChar: o
Encoding: 111 111 156
Width: 556
Flags: HMW
HStem: -14 72<252 340.5 252 356> 466 72<250.5 317.5>
VStem: 48 90 414 90
LayerCount: 2
Fore
SplineSet
125 268 m 0
 125 99 226 58 278 58 c 0
 403 58 431 186 431 268 c 0
 431 406 357 466 278 466 c 0
 223 466 125 436 125 268 c 0
35 268 m 0
 35 411 110 538 278 538 c 0
 387 538 521 466 521 268 c 0
 521 88 434 -14 278 -14 c 0
 105 -14 35 114 35 268 c 0
EndSplineSet
EndChar

StartChar: oacute
Encoding: 313 243 157
Width: 556
Flags: HMW
HStem: -14 72<242 302.5 242 343> 464 72 597 137<223 403 288 295>
VStem: 45 90<264 264> 421 90<243.5 264>
LayerCount: 2
Fore
SplineSet
135 264 m 1
 141 113 213 58 271 58 c 0
 334 58 364 89 388 130 c 0
 412 171 421 223 421 264 c 0
 418 402 342 455 271 455 c 0
 211 455 140 411 135 264 c 1
45 264 m 0
 45 336 65 401 104 449 c 0
 144 497 192 527 271 527 c 0
 326 527 378 510 427 469 c 0
 476 429 511 363 511 264 c 0
 511 83 415 -14 271 -14 c 0
 188 -14 140 22 101 74 c 0
 62 126 45 196 45 264 c 0
223 597 m 1
 288 734 l 1
 403 734 l 1
 295 597 l 1
 223 597 l 1
EndSplineSet
EndChar

StartChar: ocircumflex
Encoding: 314 244 158
Width: 556
Flags: HMW
HStem: -14 72<242 302.5 242 343> 464 72 714 20G<230 323 323 323>
VStem: 45 90<264 264> 421 90<243.5 264>
LayerCount: 2
Fore
SplineSet
135 264 m 1
 141 113 213 58 271 58 c 0
 334 58 364 89 388 130 c 0
 412 171 421 223 421 264 c 0
 418 402 342 455 271 455 c 0
 211 455 140 411 135 264 c 1
45 264 m 0
 45 336 65 401 104 449 c 0
 144 497 192 527 271 527 c 0
 326 527 378 510 427 469 c 0
 476 429 511 363 511 264 c 0
 511 83 415 -14 271 -14 c 0
 188 -14 140 22 101 74 c 0
 62 126 45 196 45 264 c 0
124 597 m 1
 230 734 l 1
 323 734 l 1
 433 597 l 1
 333 597 l 1
 280 680 l 1
 224 597 l 1
 124 597 l 1
EndSplineSet
EndChar

StartChar: odieresis
Encoding: 315 246 159
Width: 556
Flags: HMW
HStem: -14 72<242 302.5 242 343> 474 72 606 100<143 233 143 233 324 414 143 324>
VStem: 45 90<264 264> 421 90<243.5 264>
LayerCount: 2
Fore
SplineSet
135 264 m 1
 141 113 213 58 271 58 c 0
 334 58 364 89 388 130 c 0
 412 171 421 223 421 264 c 0
 418 402 342 455 271 455 c 0
 211 455 140 411 135 264 c 1
45 264 m 0
 45 336 65 401 104 449 c 0
 144 497 192 527 271 527 c 0
 326 527 378 510 427 469 c 0
 476 429 511 363 511 264 c 0
 511 83 415 -14 271 -14 c 0
 188 -14 140 22 101 74 c 0
 62 126 45 196 45 264 c 0
324 606 m 1
 324 706 l 1
 414 706 l 1
 414 606 l 1
 324 606 l 1
143 606 m 1
 143 706 l 1
 233 706 l 1
 233 606 l 1
 143 606 l 1
EndSplineSet
EndChar

StartChar: oe
Encoding: 250 339 160
Width: 944
Flags: HMW
HStem: -15 73<258 293 631.5 693.5> 236 72<525 810 525 902 522 810> 466 72<231.5 320.5>
VStem: 35 90<172.5 315.5 171.5 352.5> 433 92<308 308 308 324.5> 810 92<308 308>
LayerCount: 2
Fore
SplineSet
525 308 m 1
 810 308 l 1
 800 420 739 462 663 462 c 0
 602 462 534 420 525 308 c 1
125 262 m 0
 125 81 238 58 278 58 c 0
 356 58 433 125 433 262 c 0
 433 387 363 466 278 466 c 0
 185 466 125 369 125 262 c 0
475 83 m 1
 403 -12 308 -15 278 -15 c 0
 144 -15 35 83 35 262 c 0
 35 443 157 538 278 538 c 0
 384 538 433 500 475 439 c 1
 519 503 585 538 663 538 c 0
 729 538 902 514 902 236 c 1
 522 236 l 1
 523 135 570 58 663 58 c 0
 766 58 811 149 817 169 c 1
 896 156 l 1
 856 5 724 -15 663 -15 c 0
 600 -15 527 5 475 83 c 1
EndSplineSet
EndChar

StartChar: ogonek
Encoding: 206 731 161
Width: 333
Flags: HMW
HStem: -225 60<179 203.5> -20 20G<93 151 151 151>
VStem: 73 62<-119.5 -99.5> 197 90
LayerCount: 2
Fore
SplineSet
93 0 m 1
 151 0 l 1
 132 -44 135 -90 135 -96 c 0
 135 -143 161 -165 197 -165 c 0
 224 -165 257 -159 287 -140 c 1
 287 -195 l 1
 258 -213 221 -225 186 -225 c 0
 127 -225 73 -188 73 -110 c 0
 73 -89 76 -60 93 0 c 1
EndSplineSet
EndChar

StartChar: ograve
Encoding: 316 242 162
Width: 556
Flags: HMW
HStem: -14 72<242 302.5 242 343> 464 72 599 135<262 262 262 269 154 334>
VStem: 45 90<264 264> 421 90<243.5 264>
LayerCount: 2
Fore
SplineSet
262 599 m 1
 154 734 l 1
 269 734 l 1
 334 599 l 1
 262 599 l 1
135 264 m 1
 141 113 213 58 271 58 c 0
 334 58 364 89 388 130 c 0
 412 171 421 223 421 264 c 0
 418 402 342 455 271 455 c 0
 211 455 140 411 135 264 c 1
45 264 m 0
 45 336 65 401 104 449 c 0
 144 497 192 527 271 527 c 0
 326 527 378 510 427 469 c 0
 476 429 511 363 511 264 c 0
 511 83 415 -14 271 -14 c 0
 188 -14 140 22 101 74 c 0
 62 126 45 196 45 264 c 0
EndSplineSet
EndChar

StartChar: one
Encoding: 49 49 163
Width: 556
Flags: HMW
HStem: 0 21G<271 271 271 359> 554 159
VStem: 271 88<0 544 544 544>
LayerCount: 2
Fore
SplineSet
271 0 m 1
 271 544 l 1
 215 490 133 450 101 438 c 1
 101 523 l 1
 185 562 256 630 292 703 c 1
 359 703 l 1
 359 0 l 1
 271 0 l 1
EndSplineSet
EndChar

StartChar: onehalf
Encoding: 317 189 164
Width: 834
Flags: HMW
HStem: -19 21G<91 91 91 167> -10 56<588 773 588 773> 287 56<603 640.5 570.5 650> 682 20G<168 220 220 220> 683 20G<619 694 694 694>
VStem: 150 70<349 610 610 610> 695 76<219 252>
LayerCount: 2
Fore
SplineSet
475 -10 m 1
 481 42 535 89 598 134 c 0
 672 186 695 203 695 235 c 0
 695 269 670 287 630 287 c 0
 576 287 566 261 557 234 c 1
 485 241 l 1
 493 274 511 343 630 343 c 0
 651 343 771 329 771 235 c 0
 771 174 728 149 660 102 c 1
 588 46 l 1
 773 46 l 1
 773 -10 l 1
 475 -10 l 1
91 -19 m 1
 619 703 l 1
 694 703 l 1
 167 -19 l 1
 91 -19 l 1
150 349 m 1
 150 610 l 1
 121 586 80 565 43 556 c 1
 43 614 l 1
 77 625 133 659 168 702 c 1
 220 702 l 1
 220 349 l 1
 150 349 l 1
EndSplineSet
EndChar

StartChar: onequarter
Encoding: 318 188 165
Width: 834
Flags: HMW
HStem: -19 21G<129 129 129 202> 62 51<537 642 537 642 708 756> 683 20G<192 242 242 242>
VStem: 175 67<352 611 611 611> 642 66<-9 62 -9 62 113 236 236 236>
LayerCount: 2
Fore
SplineSet
129 -19 m 1
 636 700 l 1
 707 700 l 1
 202 -19 l 1
 129 -19 l 1
175 352 m 1
 175 611 l 1
 147 587 109 567 73 558 c 1
 73 616 l 1
 106 626 159 660 192 703 c 1
 242 703 l 1
 242 352 l 1
 175 352 l 1
537 113 m 1
 642 113 l 1
 642 236 l 1
 537 113 l 1
467 62 m 1
 467 120 l 1
 652 341 l 1
 708 341 l 1
 708 113 l 1
 756 113 l 1
 756 62 l 1
 708 62 l 1
 708 -9 l 1
 642 -9 l 1
 642 62 l 1
 467 62 l 1
EndSplineSet
EndChar

StartChar: onesuperior
Encoding: 319 185 166
Width: 333
Flags: HMW
HStem: 311 21G<151 151 151 222> 713 20G<169 222 222 222>
VStem: 151 71<311 637 637 637>
LayerCount: 2
Fore
SplineSet
151 311 m 1
 151 637 l 1
 121 612 81 591 43 581 c 1
 43 642 l 1
 78 653 134 688 169 733 c 1
 222 733 l 1
 222 311 l 1
 151 311 l 1
EndSplineSet
EndChar

StartChar: ordfeminine
Encoding: 227 170 167
Width: 370
Flags: HMW
HStem: 304 70<139.5 165.5> 672 65<165 215.5 123.5 219.5>
VStem: 24 72<413 455 413 484.5> 260 67<580 596>
LayerCount: 2
Fore
SplineSet
259 514 m 1
 242 508 231 507 187 498 c 0
 123 486 96 478 96 432 c 0
 96 394 123 374 156 374 c 0
 191 374 230 394 248 432 c 0
 258 452 259 466 259 514 c 1
274 315 m 1
 268 330 264 344 264 366 c 1
 235 336 191 304 140 304 c 0
 95 304 24 332 24 432 c 0
 24 537 106 551 155 558 c 0
 171 562 251 574 260 580 c 1
 260 619 257 672 182 672 c 0
 148 672 110 658 102 596 c 1
 37 616 l 1
 42 657 65 737 182 737 c 0
 249 737 327 721 327 596 c 2
 327 458 l 2
 327 383 327 343 346 315 c 1
 274 315 l 1
EndSplineSet
EndChar

StartChar: ordmasculine
Encoding: 235 186 168
Width: 365
Flags: HMW
HStem: 304 69<140 226 140 244> 668 69<142 226>
VStem: 25 64<511 541.5 511 569.5> 277 64<504.5 532>
LayerCount: 2
Fore
SplineSet
89 522 m 0
 89 500 97 373 183 373 c 0
 269 373 277 487 277 522 c 0
 277 542 269 668 183 668 c 0
 101 668 89 561 89 522 c 0
25 522 m 0
 25 617 62 737 183 737 c 0
 306 737 341 609 341 522 c 0
 341 433 305 304 183 304 c 0
 78 304 25 405 25 522 c 0
EndSplineSet
EndChar

StartChar: oslash
Encoding: 249 248 169
Width: 611
Flags: HMW
HStem: -22 21G<85 85> 5 69<255 310 255 362.5> 454 69<255.5 305.5> 525 20G<483 483>
VStem: 28 72<235.5 335> 456 81<189.5 293.5>
LayerCount: 2
Fore
SplineSet
180 94 m 1
 199 80 230 74 280 74 c 0
 340 74 456 103 456 263 c 0
 456 324 444 349 422 377 c 1
 180 94 l 1
140 138 m 1
 384 422 l 1
 365 435 331 454 280 454 c 0
 231 454 100 427 100 261 c 0
 100 210 111 165 140 138 c 1
37 12 m 1
 93 79 l 1
 59 114 28 170 28 263 c 0
 28 407 114 523 280 523 c 0
 356 523 403 501 432 485 c 1
 483 545 l 1
 532 512 l 1
 477 448 l 1
 503 416 537 372 537 263 c 0
 537 116 445 5 280 5 c 0
 199 5 163 29 139 43 c 1
 85 -22 l 1
 37 12 l 1
EndSplineSet
EndChar

StartChar: otilde
Encoding: 320 245 170
Width: 556
Flags: HMW
HStem: -14 72<242 302.5 242 343> 474 72 609 113 701 20G<189.5 214>
VStem: 45 90<264 264> 421 90<243.5 264>
LayerCount: 2
Fore
SplineSet
135 264 m 1
 141 113 213 58 271 58 c 0
 334 58 364 89 388 130 c 0
 412 171 421 223 421 264 c 0
 418 402 342 455 271 455 c 0
 211 455 140 411 135 264 c 1
45 264 m 0
 45 336 65 401 104 449 c 0
 144 497 192 527 271 527 c 0
 326 527 378 510 427 469 c 0
 476 429 511 363 511 264 c 0
 511 83 415 -14 271 -14 c 0
 188 -14 140 22 101 74 c 0
 62 126 45 196 45 264 c 0
115 609 m 1
 115 684 165 721 214 721 c 0
 239 722 271 709 298 698 c 0
 321 687 339 680 343 680 c 0
 363 680 374 687 378 722 c 1
 442 722 l 1
 442 612 367 610 346 610 c 0
 331 610 311 621 288 632 c 0
 265 644 240 656 217 656 c 0
 213 656 180 657 180 609 c 1
 115 609 l 1
EndSplineSet
EndChar

StartChar: p
Encoding: 112 112 171
Width: 556
Flags: HMW
HStem: -207 21G<58 146 58 58> -5 72<246 302 246 333> 469 69<234 309>
VStem: 60 88 408 90
LayerCount: 2
Fore
SplineSet
137 263 m 0
 137 107 216 67 276 67 c 0
 328 67 427 94 427 264 c 0
 427 410 342 469 276 469 c 0
 192 469 137 384 137 263 c 0
148 61 m 1
 146 61 l 1
 146 -207 l 1
 58 -207 l 1
 58 526 l 1
 138 526 l 1
 138 459 l 1
 140 459 l 1
 155 483 182 538 276 538 c 0
 423 538 517 409 517 264 c 0
 517 80 390 -5 276 -5 c 0
 214 -5 174 26 148 61 c 1
EndSplineSet
EndChar

StartChar: paragraph
Encoding: 182 182 172
Width: 537
Flags: HMW
HStem: -173 21G<216 216 216 288 370 370 370 439> 633 85<288 370 288 288 439 497 439 439>
VStem: 18 270<464 582.5> 370 69<-173 633 -173 633>
LayerCount: 2
Fore
SplineSet
216 -173 m 1
 216 320 l 1
 81 320 18 414 18 514 c 0
 18 651 127 718 250 718 c 2
 497 718 l 1
 497 633 l 1
 439 633 l 1
 439 -173 l 1
 370 -173 l 1
 370 633 l 1
 288 633 l 1
 288 -173 l 1
 216 -173 l 1
EndSplineSet
EndChar

StartChar: parenleft
Encoding: 40 40 173
Width: 333
Flags: HMW
HStem: -207 21G<244 244 244 299> 713 20G<234 299 299 299>
VStem: 68 91<190.5 346.5>
LayerCount: 2
Fore
SplineSet
244 -207 m 1
 205 -158 68 27 68 262 c 0
 68 431 128 594 234 733 c 1
 299 733 l 1
 232 618 159 479 159 262 c 0
 159 119 193 -37 299 -207 c 1
 244 -207 l 1
EndSplineSet
EndChar

StartChar: parenright
Encoding: 41 41 174
Width: 333
Flags: HMW
HStem: -207 21G<93 93> 713 20G<34 96 96 96>
VStem: 174 91<177.5 333.5>
LayerCount: 2
Fore
SplineSet
34 -205 m 1
 96 -101 174 45 174 262 c 0
 174 405 140 563 34 733 c 1
 96 733 l 1
 135 684 265 497 265 262 c 0
 265 93 199 -68 93 -207 c 1
 34 -205 l 1
EndSplineSet
EndChar

StartChar: percent
Encoding: 37 37 175
Width: 889
Flags: HMW
HStem: -19 21G<194 194 194 273> -18 58<655.5 715.5> 286 57<640.5 715.5 622.5 724> 341 58<175.5 235.5> 645 57<161 235.5 143 244> 683 20G<619 696 696 696>
VStem: 39 83<509 538.5 509 562.5> 288 82<503.5 533.5> 519 82<151 180.5 151 204.5> 768 82<145.5 175.5>
LayerCount: 2
Fore
SplineSet
194 -19 m 1
 619 703 l 1
 696 703 l 1
 273 -19 l 1
 194 -19 l 1
601 163 m 0
 601 139 599 40 682 40 c 0
 766 40 768 128 768 163 c 0
 768 188 766 286 682 286 c 0
 599 286 601 198 601 163 c 0
519 163 m 0
 519 246 563 343 682 343 c 0
 749 343 850 309 850 163 c 0
 850 22 749 -18 682 -18 c 0
 629 -18 519 0 519 163 c 0
122 521 m 0
 122 497 120 399 202 399 c 0
 286 399 288 486 288 521 c 0
 288 546 286 645 202 645 c 0
 120 645 122 556 122 521 c 0
39 521 m 0
 39 604 84 702 202 702 c 0
 269 702 370 668 370 521 c 0
 370 380 269 341 202 341 c 0
 149 341 39 358 39 521 c 0
EndSplineSet
EndChar

StartChar: period
Encoding: 46 46 176
Width: 278
Flags: HMW
HStem: 0 106<87 191 87 191>
VStem: 87 104<0 106 0 106>
LayerCount: 2
Fore
SplineSet
87 0 m 1
 87 106 l 1
 191 106 l 1
 191 0 l 1
 87 0 l 1
EndSplineSet
EndChar

StartChar: periodcentered
Encoding: 180 183 177
Width: 278
Flags: HMW
HStem: 190 125<77 202 77 202>
VStem: 77 125<190 315 190 315>
LayerCount: 2
Fore
SplineSet
77 190 m 1
 77 315 l 1
 202 315 l 1
 202 190 l 1
 77 190 l 1
EndSplineSet
EndChar

StartChar: perthousand
Encoding: 189 8240 178
Width: 1000
Flags: HMW
HStem: -19 58<479 544.5 479 584.5 816 881.5> 281 58<478 541.5 815 878.5> 336 59<115.5 180.5 115.5 220.5> 636 57<114.5 177.5> 683 20G<449 515 515 515>
VStem: 7 74<493.5 535 493.5 539.5> 220 73<493.5 535.5 493.5 548> 371 73<143 179 137.5 183> 583 74<137.5 179.5 137.5 192> 708 73<143 179 137.5 183> 920 74<137.5 179.5 137.5 192>
LayerCount: 2
Fore
SplineSet
150 -17 m 1
 449 703 l 1
 515 703 l 1
 216 -17 l 1
 150 -17 l 1
781 160 m 0
 781 115 782 39 850 39 c 0
 913 39 920 114 920 160 c 0
 920 224 907 281 850 281 c 0
 780 281 781 198 781 160 c 0
708 160 m 0
 708 206 716 339 850 339 c 0
 989 339 994 199 994 160 c 0
 994 115 993 -19 850 -19 c 0
 707 -19 708 126 708 160 c 0
444 160 m 0
 444 115 445 39 513 39 c 0
 576 39 583 114 583 160 c 0
 583 224 570 281 513 281 c 0
 443 281 444 198 444 160 c 0
371 160 m 0
 371 206 379 339 513 339 c 0
 652 339 657 199 657 160 c 0
 657 115 656 -19 513 -19 c 0
 370 -19 371 126 371 160 c 0
81 516 m 0
 81 471 82 395 149 395 c 0
 212 395 220 470 220 516 c 0
 220 580 206 636 149 636 c 0
 80 636 81 554 81 516 c 0
7 516 m 0
 7 563 15 693 149 693 c 0
 288 693 293 555 293 516 c 0
 293 471 292 336 149 336 c 0
 19 336 7 459 7 516 c 0
EndSplineSet
EndChar

StartChar: plus
Encoding: 43 43 179
Width: 584
Flags: HMW
HStem: 238 89<39 249 39 249 338 545>
VStem: 249 89<30 238 30 238 327 535>
LayerCount: 2
Fore
SplineSet
39 238 m 1
 39 327 l 1
 249 327 l 1
 249 535 l 1
 338 535 l 1
 338 327 l 1
 545 327 l 1
 545 238 l 1
 338 238 l 1
 338 30 l 1
 249 30 l 1
 249 238 l 1
 39 238 l 1
EndSplineSet
EndChar

StartChar: plusminus
Encoding: 321 177 180
Width: 584
Flags: HMW
HStem: 0 78<39 545 39 545> 273 77<39 247 39 247 336 545> 486 20G<247 336 336 336>
VStem: 247 89<119 273 119 273 350 506>
LayerCount: 2
Fore
SplineSet
39 0 m 1
 39 78 l 1
 545 78 l 1
 545 0 l 1
 39 0 l 1
39 273 m 1
 39 350 l 1
 247 350 l 1
 247 506 l 1
 336 506 l 1
 336 350 l 1
 545 350 l 1
 545 273 l 1
 336 273 l 1
 336 119 l 1
 247 119 l 1
 247 273 l 1
 39 273 l 1
EndSplineSet
EndChar

StartChar: q
Encoding: 113 113 181
Width: 556
Flags: HMW
HStem: -207 21G<406 494 406 406> -5 72<229 285 229 286> 469 69<222 297>
VStem: 51 90 415 79<191 329.5>
LayerCount: 2
Fore
SplineSet
125 269 m 0
 125 99 203 67 255 67 c 0
 315 67 415 113 415 269 c 0
 415 390 339 469 255 469 c 0
 189 469 125 415 125 269 c 0
404 61 m 1
 378 26 317 -5 255 -5 c 0
 141 -5 35 85 35 269 c 0
 35 414 108 538 255 538 c 0
 349 538 397 483 412 459 c 1
 414 459 l 1
 414 526 l 1
 494 526 l 1
 494 -207 l 1
 406 -207 l 1
 406 61 l 1
 404 61 l 1
EndSplineSet
EndChar

StartChar: question
Encoding: 63 63 182
Width: 556
Flags: HMW
HStem: 0 100<221 317 221 317> 655 72<230 310.5>
VStem: 221 96<0 100 0 100> 227 81<176 176> 405 87<502 560>
LayerCount: 2
Fore
SplineSet
221 0 m 1
 221 100 l 1
 317 100 l 1
 317 0 l 1
 221 0 l 1
227 176 m 1
 222 300 253 336 336 411 c 0
 377 448 405 477 405 527 c 0
 405 593 349 655 272 655 c 0
 188 655 147 596 133 511 c 1
 56 521 l 1
 56 639 170 727 271 727 c 0
 401 727 492 639 492 527 c 0
 492 446 448 405 389 350 c 0
 322 289 310 274 308 176 c 1
 227 176 l 1
EndSplineSet
EndChar

StartChar: questiondown
Encoding: 191 191 183
Width: 611
Flags: HMW
HStem: -201 72<280 353.5> 426 99<266 366 266 366>
VStem: 91 90<-38 20 -38 35.5> 266 100<426 525 426 525> 276 84<342 342> 445 82<-74.5 17>
LayerCount: 2
Fore
SplineSet
266 426 m 1
 266 525 l 1
 366 525 l 1
 366 426 l 1
 266 426 l 1
276 342 m 1
 360 342 l 1
 365 218 339 192 253 117 c 0
 211 80 181 45 181 -5 c 0
 181 -71 240 -129 320 -129 c 0
 406 -129 446 -59 445 17 c 1
 527 7 l 1
 527 -156 386 -201 321 -201 c 0
 186 -201 91 -117 91 -5 c 0
 91 76 137 123 199 178 c 0
 268 239 274 244 276 342 c 1
EndSplineSet
EndChar

StartChar: quotedbl
Encoding: 34 34 184
Width: 355
Flags: HMW
HStem: 463 21G<86 86 86 130 224 224 224 268> 698 20G<70 147 147 147 208 285 285 285>
VStem: 70 77<601 718 601 718> 208 77<601 718 601 718>
LayerCount: 2
Fore
SplineSet
86 463 m 1
 70 601 l 1
 70 718 l 1
 147 718 l 1
 147 601 l 1
 130 463 l 1
 86 463 l 1
224 463 m 1
 208 601 l 1
 208 718 l 1
 285 718 l 1
 285 601 l 1
 268 463 l 1
 224 463 l 1
EndSplineSet
EndChar

StartChar: quotedblbase
Encoding: 185 8222 185
Width: 333
Flags: HMW
HStem: -149 21G<48 48 215 215> -7 113<34 128 34 80 201 247 34 201>
VStem: 80 48<-7 -7> 247 48<-7 -7>
LayerCount: 2
Fore
SplineSet
201 -7 m 1
 201 106 l 1
 295 106 l 1
 295 15 l 2
 295 -34 295 -113 215 -149 c 1
 193 -115 l 1
 244 -94 246 -35 247 -7 c 1
 201 -7 l 1
34 -7 m 1
 34 106 l 1
 128 106 l 1
 128 15 l 2
 128 -34 128 -113 48 -149 c 1
 26 -115 l 1
 77 -94 79 -35 80 -7 c 1
 34 -7 l 1
EndSplineSet
EndChar

StartChar: quotedblleft
Encoding: 170 8220 186
Width: 333
Flags: HMW
HStem: 470 114<38 132 86 132 86 132 86 205 253 299> 705 20G<118 118 285 285>
VStem: 38 48<470 584 584 584 584 586.5> 205 48<470 584 584 584 584 586.5>
LayerCount: 2
Fore
SplineSet
38 470 m 1
 38 562 l 2
 38 611 38 689 118 725 c 1
 140 691 l 1
 89 670 87 612 86 584 c 1
 132 584 l 1
 132 470 l 1
 38 470 l 1
205 470 m 1
 205 562 l 2
 205 611 205 689 285 725 c 1
 307 691 l 1
 256 670 254 612 253 584 c 1
 299 584 l 1
 299 470 l 1
 205 470 l 1
EndSplineSet
EndChar

StartChar: quotedblright
Encoding: 186 8221 187
Width: 333
Flags: HMW
HStem: 463 21G<48 48 215 215> 604 114<34 80 34 128 34 201 201 247>
VStem: 80 48<604 604> 247 48<604 604>
LayerCount: 2
Fore
SplineSet
215 463 m 1
 193 497 l 1
 244 518 246 576 247 604 c 1
 201 604 l 1
 201 718 l 1
 295 718 l 1
 295 626 l 2
 295 577 295 499 215 463 c 1
48 463 m 1
 26 497 l 1
 77 518 79 576 80 604 c 1
 34 604 l 1
 34 718 l 1
 128 718 l 1
 128 626 l 2
 128 577 128 499 48 463 c 1
EndSplineSet
EndChar

StartChar: quoteleft
Encoding: 96 8216 188
Width: 222
Flags: HMW
HStem: 470 100<65 158 112 158 112 158> 705 20G<147 147>
VStem: 65 47<470 570 570 570 570 572.5>
LayerCount: 2
Fore
SplineSet
65 470 m 1
 65 548 l 2
 65 597 67 689 147 725 c 1
 169 691 l 1
 118 670 113 598 112 570 c 1
 158 570 l 1
 158 470 l 1
 65 470 l 1
EndSplineSet
EndChar

StartChar: quoteright
Encoding: 39 8217 189
Width: 222
Flags: HMW
HStem: 463 21G<75 75>
VStem: 110 47<601 601>
LayerCount: 2
Fore
SplineSet
75 463 m 1
 53 497 l 1
 104 518 109 573 110 601 c 1
 64 601 l 1
 64 718 l 1
 157 718 l 1
 157 623 l 2
 157 574 155 499 75 463 c 1
EndSplineSet
EndChar

StartChar: quotesinglbase
Encoding: 184 8218 190
Width: 222
Flags: HMW
HStem: -6 112<63 157 63 109>
VStem: 109 48<-6 -6>
LayerCount: 2
Fore
SplineSet
63 -6 m 1
 63 106 l 1
 157 106 l 1
 157 16 l 2
 157 -33 155 -113 75 -149 c 1
 53 -115 l 1
 104 -94 108 -34 109 -6 c 1
 63 -6 l 1
EndSplineSet
EndChar

StartChar: quotesingle
Encoding: 169 39 191
Width: 191
Flags: HMW
HStem: 463 21G<80 80 80 110> 698 20G<59 132 132 132>
VStem: 59 73<601 718 601 718>
LayerCount: 2
Fore
SplineSet
80 463 m 1
 59 601 l 1
 59 718 l 1
 132 718 l 1
 132 601 l 1
 110 463 l 1
 80 463 l 1
EndSplineSet
EndChar

StartChar: r
Encoding: 114 114 192
Width: 333
Flags: HMW
HStem: 0 21G<77 77 77 165> 449 89<227.5 248.5>
VStem: -6 88
LayerCount: 2
Fore
SplineSet
77 0 m 1
 77 527 l 1
 157 527 l 1
 157 454 l 1
 159 454 l 1
 179 494 196 538 259 538 c 0
 304 538 323 518 332 511 c 1
 302 429 l 1
 281 448 260 449 237 449 c 0
 181 449 165 356 165 280 c 2
 165 0 l 1
 77 0 l 1
EndSplineSet
EndChar

StartChar: registered
Encoding: 322 174 193
Width: 737
Flags: HMW
HStem: -19 63<282 458 282 477> 323 56<269 309 269 345> 501 55<269 345 269 269> 674 63<282 458>
VStem: -14 63<272.5 447 272.5 465> 203 66<150 323 379 501> 450 71<410 471> 689 63<272.5 447>
LayerCount: 2
Fore
SplineSet
49 360 m 0
 49 185 194 44 370 44 c 0
 546 44 689 185 689 360 c 0
 689 534 546 674 370 674 c 0
 194 674 49 534 49 360 c 0
-14 360 m 0
 -14 570 161 737 371 737 c 0
 581 737 752 569 752 360 c 0
 752 151 583 -19 371 -19 c 0
 159 -19 -14 150 -14 360 c 0
269 379 m 1
 345 379 l 2
 376 379 450 379 450 441 c 0
 450 501 386 501 345 501 c 2
 269 501 l 1
 269 379 l 1
203 150 m 1
 203 556 l 1
 345 556 l 2
 424 556 521 538 521 441 c 0
 521 341 425 332 407 332 c 1
 431 322 448 310 499 229 c 2
 549 150 l 1
 468 150 l 1
 431 214 l 2
 381 302 362 323 309 323 c 2
 269 323 l 1
 269 150 l 1
 203 150 l 1
EndSplineSet
EndChar

StartChar: ring
Encoding: 202 730 194
Width: 333
Flags: HMW
HStem: 572 38<152 181.5 152 192> 718 38<150.5 182>
VStem: 75 38<649 679.5 649 691.5> 221 38<650.5 680.5>
LayerCount: 2
Fore
SplineSet
113 666 m 0
 113 632 138 610 166 610 c 0
 197 610 221 635 221 666 c 0
 221 695 198 718 166 718 c 0
 135 718 113 693 113 666 c 0
75 666 m 0
 75 717 115 756 166 756 c 0
 218 756 259 717 259 666 c 0
 259 614 218 572 166 572 c 0
 115 572 75 614 75 666 c 0
EndSplineSet
EndChar

StartChar: s
Encoding: 115 115 195
Width: 500
Flags: HMW
HStem: -15 72<210.5 297.5 210.5 320.5> 466 72<218.5 253.5>
VStem: 61 85 374 90<125.5 164>
LayerCount: 2
Fore
SplineSet
32 155 m 1
 119 168 l 1
 128 99 169 57 252 57 c 0
 343 57 374 108 374 143 c 0
 374 185 336 209 226 236 c 0
 147 255 45 279 45 387 c 0
 45 467 111 538 236 538 c 0
 418 538 435 431 442 391 c 1
 356 379 l 1
 345 458 271 466 236 466 c 0
 201 466 130 446 130 387 c 0
 130 343 167 337 252 315 c 0
 388 280 464 250 464 143 c 0
 464 57 388 -15 253 -15 c 0
 65 -15 41 103 32 155 c 1
EndSplineSet
EndChar

StartChar: scaron
Encoding: 323 353 196
Width: 500
Flags: HMW
HStem: -15 72<211.5 298.5 211.5 320.5> 455 72<219.5 254.5> 714 20G<96 196 196 196 305 405 405 405>
VStem: 46 85<366 417.5 366 418> 374 90<122.5 161>
LayerCount: 2
Fore
SplineSet
206 597 m 1
 96 734 l 1
 196 734 l 1
 249 651 l 1
 305 734 l 1
 405 734 l 1
 299 597 l 1
 206 597 l 1
32 152 m 1
 119 165 l 1
 128 96 170 57 253 57 c 0
 344 57 374 105 374 140 c 0
 374 182 337 197 227 224 c 0
 148 243 46 270 46 378 c 0
 46 458 112 527 237 527 c 0
 419 527 436 422 443 382 c 1
 357 370 l 1
 346 449 272 455 237 455 c 0
 202 455 131 447 131 388 c 0
 131 344 168 321 253 299 c 0
 389 264 464 247 464 140 c 0
 464 54 388 -15 253 -15 c 0
 65 -15 41 100 32 152 c 1
EndSplineSet
EndChar

StartChar: section
Encoding: 167 167 197
Width: 556
Flags: HMW
HStem: -191 73<235.5 325.5 235.5 343.5> 666 71<237.5 307 209 310.5>
LayerCount: 2
Fore
SplineSet
356 135 m 1
 410 162 428 198 428 225 c 0
 428 276 372 317 294 365 c 0
 252 391 220 412 196 432 c 1
 169 417 122 380 122 328 c 0
 122 276 165 250 245 203 c 0
 309 166 337 149 356 135 c 1
73 -17 m 1
 161 -5 l 1
 170 -44 186 -118 285 -118 c 0
 366 -118 390 -64 390 -34 c 0
 390 -14 384 7 348 35 c 0
 325 53 288 81 209 130 c 0
 130 177 43 231 43 328 c 0
 43 383 77 443 153 466 c 1
 125 490 88 525 88 584 c 0
 88 648 145 737 273 737 c 0
 341 737 470 686 470 570 c 1
 379 560 l 1
 372 597 353 666 268 666 c 0
 207 666 176 623 176 584 c 0
 176 527 270 475 336 435 c 0
 436 376 512 317 512 225 c 0
 512 133 442 120 400 103 c 1
 418 89 478 44 478 -33 c 0
 478 -122 402 -191 285 -191 c 0
 180 -191 89 -141 73 -17 c 1
EndSplineSet
EndChar

StartChar: semicolon
Encoding: 59 59 198
Width: 278
Flags: HMW
HStem: -147 21G<111 111> 417 99<88 191 88 191>
VStem: 88 103<-6 93 -23 93 417 516>
LayerCount: 2
Fore
SplineSet
88 417 m 1
 88 516 l 1
 191 516 l 1
 191 417 l 1
 88 417 l 1
88 -6 m 1
 88 93 l 1
 191 93 l 1
 191 -6 l 2
 191 -40 182 -122 111 -147 c 1
 87 -110 l 1
 134 -89 148 -48 149 -6 c 1
 88 -6 l 1
EndSplineSet
EndChar

StartChar: seven
Encoding: 55 55 199
Width: 556
Flags: HMW
HStem: 0 21G<143 143 143 237> 630 81
VStem: 143 94<0 0>
LayerCount: 2
Fore
SplineSet
143 0 m 1
 145 163 237 429 404 607 c 1
 37 607 l 1
 37 688 l 1
 523 688 l 1
 523 624 l 1
 452 553 260 312 237 0 c 1
 143 0 l 1
EndSplineSet
EndChar

StartChar: six
Encoding: 54 54 200
Width: 556
Flags: HMW
HStem: -19 71<244 333.5 244 365.5> 376 76<254 333> 632 71<228.5 331.5 167 338>
VStem: 57 104 426 92<175.5 261.5>
LayerCount: 2
Fore
SplineSet
142 222 m 0
 142 133 199 52 289 52 c 0
 378 52 426 134 426 217 c 0
 426 306 377 376 289 376 c 0
 219 376 142 324 142 222 c 0
128 358 m 1
 130 358 l 1
 168 418 214 452 289 452 c 0
 404 452 518 357 518 217 c 0
 518 99 442 -19 289 -19 c 0
 81 -19 38 149 38 324 c 0
 38 415 45 703 289 703 c 0
 374 703 488 663 507 528 c 1
 417 520 l 1
 411 547 387 632 289 632 c 0
 168 632 128 470 128 358 c 1
EndSplineSet
EndChar

StartChar: slash
Encoding: 47 47 201
Width: 278
Flags: HMW
HStem: -19 21G<-17 -17 -17 54>
VStem: -17 312
LayerCount: 2
Fore
SplineSet
-17 -19 m 1
 232 737 l 1
 295 737 l 1
 54 -19 l 1
 -17 -19 l 1
EndSplineSet
EndChar

StartChar: sterling
Encoding: 163 163 203
Width: 556
Flags: HMW
HStem: -16 79<394 437.5 384 445> 30 72<204 244.5> 318 71<44 117 44 137 44 117 227 227 227 362> 647 71<269.5 339>
VStem: 93 88<498 545.5 497.5 585.5> 145 92<240 272.5>
LayerCount: 2
Fore
SplineSet
33 69 m 1
 58 83 145 138 145 258 c 0
 145 287 141 302 137 318 c 1
 44 318 l 1
 44 389 l 1
 117 389 l 1
 100 450 93 480 93 516 c 0
 93 655 201 718 308 718 c 0
 413 718 514 647 521 535 c 1
 435 522 l 1
 425 604 370 647 308 647 c 0
 231 647 181 575 181 516 c 0
 181 479 199 427 212 389 c 1
 362 389 l 1
 362 318 l 1
 227 318 l 1
 232 306 237 296 237 275 c 0
 237 205 198 142 150 93 c 1
 152 91 l 1
 165 96 189 102 219 102 c 0
 293 102 348 63 420 63 c 0
 455 63 494 86 511 94 c 1
 539 14 l 1
 498 -3 466 -16 424 -16 c 0
 364 -16 276 30 213 30 c 0
 165 30 108 13 66 -15 c 1
 33 69 l 1
EndSplineSet
EndChar

StartChar: t
Encoding: 116 116 204
Width: 278
Flags: HMW
HStem: -7 21G<143 214.5> 439 68<14 81 14 81 169 257> 649 20G<169 169>
VStem: 81 88<147 439 507 616 616 616>
LayerCount: 2
Fore
SplineSet
257 1 m 1
 242 -2 229 -7 200 -7 c 0
 86 -7 81 61 81 147 c 2
 81 439 l 1
 14 439 l 1
 14 507 l 1
 81 507 l 1
 81 616 l 1
 169 669 l 1
 169 507 l 1
 257 507 l 1
 257 439 l 1
 169 439 l 1
 169 147 l 2
 169 74 190 66 245 79 c 1
 257 1 l 1
EndSplineSet
EndChar

StartChar: thorn
Encoding: 324 254 205
Width: 556
Flags: HMW
HStem: -207 21G<58 146 58 58> -12 73<256 312 256 341> 457 73<246.5 319> 698 20G<58 146 146 146>
VStem: 58 79<178 316.5 178 718> 58 88<-207 54 464 718> 427 90<171 328.5>
LayerCount: 2
Fore
SplineSet
137 256 m 0
 137 100 226 61 286 61 c 0
 338 61 427 86 427 256 c 0
 427 401 352 457 286 457 c 0
 202 457 137 377 137 256 c 0
146 54 m 1
 146 -207 l 1
 58 -207 l 1
 58 718 l 1
 146 718 l 1
 146 464 l 1
 177 497 207 530 286 530 c 0
 433 530 517 401 517 256 c 0
 517 70 396 -12 286 -12 c 0
 211 -12 175 23 146 54 c 1
EndSplineSet
EndChar

StartChar: three
Encoding: 51 51 206
Width: 556
Flags: HMW
HStem: -19 71<213.5 314.5 213.5 335.5> 632 71<229 299>
VStem: 405 94
LayerCount: 2
Fore
SplineSet
34 179 m 1
 126 191 l 1
 133 156 155 52 272 52 c 0
 357 52 424 116 424 199 c 0
 424 302 319 360 214 326 c 1
 225 402 l 1
 277 397 391 417 391 520 c 0
 391 595 328 632 270 632 c 0
 186 632 146 574 135 504 c 1
 43 520 l 1
 72 670 190 703 268 703 c 0
 394 703 485 622 485 520 c 0
 485 483 471 412 382 375 c 1
 382 373 l 1
 462 373 522 272 522 201 c 0
 522 63 399 -19 272 -19 c 0
 121 -19 44 80 34 179 c 1
EndSplineSet
EndChar

StartChar: threequarters
Encoding: 325 190 207
Width: 834
Flags: HMW
HStem: -19 21G<142 142 142 219> 62 51<576 688 576 688 758 810> 340 55<163 212.5 163 241> 509 194<164 164> 650 53<170 201.5 147 213>
VStem: 251 76<592 619> 268 76<430 473> 688 70<-10 62 -10 62 113 237 237 237>
LayerCount: 2
Fore
SplineSet
142 -19 m 1
 682 703 l 1
 758 703 l 1
 219 -19 l 1
 142 -19 l 1
45 441 m 1
 116 448 l 1
 122 430 135 395 191 395 c 0
 234 395 268 411 268 449 c 0
 268 497 218 511 164 509 c 1
 174 560 l 1
 201 560 251 568 251 608 c 0
 251 630 234 650 192 650 c 0
 148 650 134 630 123 602 c 1
 53 613 l 1
 75 668 102 703 192 703 c 0
 211 703 327 696 327 608 c 0
 327 576 308 552 260 540 c 1
 260 538 l 1
 309 527 344 499 344 449 c 0
 344 394 291 340 191 340 c 0
 92 340 57 383 45 441 c 1
576 113 m 1
 688 113 l 1
 688 237 l 1
 576 113 l 1
501 62 m 1
 501 120 l 1
 698 341 l 1
 758 341 l 1
 758 113 l 1
 810 113 l 1
 810 62 l 1
 758 62 l 1
 758 -10 l 1
 688 -10 l 1
 688 62 l 1
 501 62 l 1
EndSplineSet
EndChar

StartChar: threesuperior
Encoding: 326 179 208
Width: 333
Flags: HMW
HStem: 270 66<132 185 132 215> 640 63<138.5 172 114 184.5>
VStem: 226 81<571.5 603>
LayerCount: 2
Fore
SplineSet
5 392 m 1
 81 400 l 1
 87 379 102 336 162 336 c 0
 208 336 244 356 244 401 c 0
 244 458 191 473 133 472 c 1
 144 533 l 1
 172 533 226 542 226 590 c 0
 226 616 207 640 162 640 c 0
 115 640 101 616 89 584 c 1
 15 596 l 1
 38 662 66 703 162 703 c 0
 182 703 307 695 307 590 c 0
 307 553 287 524 235 509 c 1
 235 507 l 1
 288 494 325 461 325 401 c 0
 325 335 268 270 162 270 c 0
 56 270 18 323 5 392 c 1
EndSplineSet
EndChar

StartChar: tilde
Encoding: 196 732 209
Width: 333
Flags: HMW
HStem: 675 47<221.5 337>
LayerCount: 2
Fore
SplineSet
-4 606 m 1
 -4 684 51 721 101 721 c 0
 134 721 157 704 181 691 c 0
 196 682 212 675 231 675 c 0
 252 675 267 687 271 722 c 1
 337 722 l 1
 337 613 253 607 231 607 c 0
 208 607 185 621 162 633 c 0
 142 644 122 654 101 654 c 0
 97 654 63 654 63 606 c 1
 -4 606 l 1
EndSplineSet
EndChar

StartChar: trademark
Encoding: 327 8482 210
Width: 1000
Flags: HMW
HStem: 306 21G<199 199 199 265 512 573 512 512 680 680 680 740 842 842 842 903> 659 59<46 199 46 420 265 265 265 420 573 573 573 575>
VStem: 199 66<306 659 306 659> 512 61<306 659 306 718 306 718> 842 61<306 654 654 654>
LayerCount: 2
Fore
SplineSet
512 306 m 1
 512 718 l 1
 610 718 l 1
 709 386 l 1
 711 386 l 1
 807 718 l 1
 903 718 l 1
 903 306 l 1
 842 306 l 1
 842 654 l 1
 840 654 l 1
 740 306 l 1
 680 306 l 1
 575 659 l 1
 573 659 l 1
 573 306 l 1
 512 306 l 1
199 306 m 1
 199 659 l 1
 46 659 l 1
 46 718 l 1
 420 718 l 1
 420 659 l 1
 265 659 l 1
 265 306 l 1
 199 306 l 1
EndSplineSet
EndChar

StartChar: two
Encoding: 50 50 211
Width: 556
Flags: HMW
HStem: 0 83<149 507 149 507> 635 73
VStem: 414 91<468 545.5>
LayerCount: 2
Fore
SplineSet
26 0 m 1
 26 113 145 207 228 272 c 0
 306 332 414 426 414 510 c 0
 414 581 357 630 278 630 c 0
 263 630 138 631 137 491 c 1
 46 501 l 1
 60 637 156 703 278 703 c 0
 442 703 505 594 505 508 c 0
 505 406 398 300 253 188 c 0
 173 126 161 102 149 83 c 1
 507 83 l 1
 507 0 l 1
 26 0 l 1
EndSplineSet
EndChar

StartChar: twosuperior
Encoding: 328 178 212
Width: 333
Flags: HMW
HStem: 268 66 641 62<136.5 186.5>
VStem: 240 80<555 594>
LayerCount: 2
Fore
SplineSet
4 281 m 1
 10 343 69 399 137 453 c 0
 215 517 240 536 240 574 c 0
 240 614 208 641 165 641 c 0
 108 641 98 605 88 573 c 1
 14 581 l 1
 24 620 44 703 169 703 c 0
 224 703 320 686 320 574 c 0
 320 502 272 473 200 416 c 0
 142 368 132 358 122 347 c 1
 323 347 l 1
 323 281 l 1
 4 281 l 1
EndSplineSet
EndChar

StartChar: u
Encoding: 117 117 213
Width: 556
Flags: HMW
HStem: -15 76<219.5 274.5> 0 21G<410 410 410 489> 503 20G<68 156 156 156 401 489 489 489>
VStem: 68 88<197 227 227 523> 401 88<231 523 0 523>
LayerCount: 2
Fore
SplineSet
410 0 m 1
 410 76 l 1
 408 76 l 1
 352 -9 287 -15 262 -15 c 0
 131 -15 68 81 68 197 c 2
 68 523 l 1
 156 523 l 1
 156 227 l 2
 156 139 177 61 262 61 c 0
 353 61 401 143 401 231 c 2
 401 523 l 1
 489 523 l 1
 489 0 l 1
 410 0 l 1
EndSplineSet
EndChar

StartChar: uacute
Encoding: 329 250 214
Width: 556
Flags: HMW
HStem: -15 76<212.5 277.5> -3 21G<410 410 410 489> 597 137<223 403 288 295>
VStem: 68 88<197 231 231 517> 401 88<241 517 -3 517> 410 79<-3 73 73 73>
LayerCount: 2
Fore
SplineSet
223 597 m 1
 288 734 l 1
 403 734 l 1
 295 597 l 1
 223 597 l 1
410 -3 m 1
 410 73 l 1
 351 -12 291 -15 264 -15 c 0
 133 -15 68 81 68 197 c 2
 68 517 l 1
 156 517 l 1
 156 231 l 2
 156 143 161 61 264 61 c 0
 371 61 401 153 401 241 c 2
 401 517 l 1
 489 517 l 1
 489 -3 l 1
 410 -3 l 1
EndSplineSet
EndChar

StartChar: ucircumflex
Encoding: 330 251 215
Width: 556
Flags: HMW
HStem: -15 76<212.5 277.5> -3 21G<410 410 410 489> 714 20G<230 323 323 323>
VStem: 68 88<197 231 231 517> 401 88<241 517 -3 517> 410 79<-3 73 73 73>
LayerCount: 2
Fore
SplineSet
124 597 m 1
 230 734 l 1
 323 734 l 1
 433 597 l 1
 333 597 l 1
 280 680 l 1
 224 597 l 1
 124 597 l 1
410 -3 m 1
 410 73 l 1
 351 -12 291 -15 264 -15 c 0
 133 -15 68 81 68 197 c 2
 68 517 l 1
 156 517 l 1
 156 231 l 2
 156 143 161 61 264 61 c 0
 371 61 401 153 401 241 c 2
 401 517 l 1
 489 517 l 1
 489 -3 l 1
 410 -3 l 1
EndSplineSet
EndChar

StartChar: udieresis
Encoding: 331 252 216
Width: 556
Flags: HMW
HStem: -15 76<212.5 277.5> -3 21G<410 410 410 489> 606 100<143 233 143 233 324 414 143 324>
VStem: 68 88<197 231 231 517> 143 90<606 706 606 706> 324 90<606 706 606 706> 401 88<241 517 -3 517> 410 79<-3 73 73 73>
LayerCount: 2
Fore
SplineSet
324 606 m 1
 324 706 l 1
 414 706 l 1
 414 606 l 1
 324 606 l 1
143 606 m 1
 143 706 l 1
 233 706 l 1
 233 606 l 1
 143 606 l 1
410 -3 m 1
 410 73 l 1
 351 -12 291 -15 264 -15 c 0
 133 -15 68 81 68 197 c 2
 68 517 l 1
 156 517 l 1
 156 231 l 2
 156 143 161 61 264 61 c 0
 371 61 401 153 401 241 c 2
 401 517 l 1
 489 517 l 1
 489 -3 l 1
 410 -3 l 1
EndSplineSet
EndChar

StartChar: ugrave
Encoding: 332 249 217
Width: 556
Flags: HMW
HStem: -15 76<212.5 277.5> -3 21G<410 410 410 489> 597 137<262 262 262 269 154 334>
VStem: 68 88<197 231 231 517> 401 88<241 517 -3 517> 410 79<-3 73 73 73>
LayerCount: 2
Fore
SplineSet
262 597 m 1
 154 734 l 1
 269 734 l 1
 334 597 l 1
 262 597 l 1
410 -3 m 1
 410 73 l 1
 351 -12 291 -15 264 -15 c 0
 133 -15 68 81 68 197 c 2
 68 517 l 1
 156 517 l 1
 156 231 l 2
 156 143 161 61 264 61 c 0
 371 61 401 153 401 241 c 2
 401 517 l 1
 489 517 l 1
 489 -3 l 1
 410 -3 l 1
EndSplineSet
EndChar

StartChar: underscore
Encoding: 95 95 218
Width: 556
Flags: HMW
HStem: -125 50<0 556 0 556>
LayerCount: 2
Fore
SplineSet
0 -75 m 1
 556 -75 l 1
 556 -125 l 1
 0 -125 l 1
 0 -75 l 1
EndSplineSet
EndChar

StartChar: v
Encoding: 118 118 219
Width: 500
Flags: HMW
HStem: 0 21G<208 208 208 290> 503 20G<8 101 101 101 402 492 492 492>
LayerCount: 2
Fore
SplineSet
208 0 m 1
 8 523 l 1
 101 523 l 1
 249 103 l 1
 402 523 l 1
 492 523 l 1
 290 0 l 1
 208 0 l 1
EndSplineSet
EndChar

StartChar: w
Encoding: 119 119 220
Width: 722
Flags: HMW
HStem: 0 21G<173 173 173 265 463 463 463 554> 503 20G<14 105 105 105 319 409 409 409 623 709 709 709>
LayerCount: 2
Fore
SplineSet
173 0 m 1
 14 523 l 1
 105 523 l 1
 218 108 l 1
 319 523 l 1
 409 523 l 1
 511 119 l 1
 513 119 l 1
 623 523 l 1
 709 523 l 1
 554 0 l 1
 463 0 l 1
 361 404 l 1
 359 404 l 1
 265 0 l 1
 173 0 l 1
EndSplineSet
EndChar

StartChar: x
Encoding: 120 120 221
Width: 500
Flags: HMW
HStem: 0 21G<11 11 11 116 383 383 383 490> 503 20G<26 133 133 133 372 476 476 476>
LayerCount: 2
Fore
SplineSet
11 0 m 1
 197 269 l 1
 26 523 l 1
 133 523 l 1
 248 338 l 1
 372 523 l 1
 476 523 l 1
 300 274 l 1
 490 0 l 1
 383 0 l 1
 251 204 l 1
 116 0 l 1
 11 0 l 1
EndSplineSet
EndChar

StartChar: y
Encoding: 121 121 222
Width: 500
Flags: HMW
HStem: -214 82<86.5 134 86.5 154.5> 503 20G<11 106 106 106 400 489 489 489>
LayerCount: 2
Fore
SplineSet
47 -124 m 1
 60 -128 76 -132 97 -132 c 0
 171 -132 181 -67 207 5 c 1
 11 523 l 1
 106 523 l 1
 250 104 l 1
 252 104 l 1
 400 523 l 1
 489 523 l 1
 288 -3 l 1
 237 -106 212 -214 97 -214 c 0
 72 -214 70 -208 56 -204 c 1
 47 -124 l 1
EndSplineSet
EndChar

StartChar: yacute
Encoding: 333 253 223
Width: 500
Flags: HMW
HStem: -214 79<86.5 134 86.5 155.5> 597 137<195 375 260 267>
LayerCount: 2
Fore
SplineSet
195 597 m 1
 260 734 l 1
 375 734 l 1
 267 597 l 1
 195 597 l 1
48 -121 m 1
 61 -125 76 -135 97 -135 c 0
 171 -135 182 -78 208 -6 c 1
 11 512 l 1
 106 512 l 1
 251 93 l 1
 253 93 l 1
 400 512 l 1
 489 512 l 1
 290 -14 l 1
 239 -117 213 -214 98 -214 c 0
 73 -214 71 -208 57 -204 c 1
 48 -121 l 1
EndSplineSet
EndChar

StartChar: ydieresis
Encoding: 334 255 224
Width: 500
Flags: HMW
HStem: -214 79<86.5 134 86.5 155.5> 606 100<115 205 115 205 296 386 115 296>
VStem: 11 95<512 512> 115 90<606 706 606 706> 296 90<606 706 606 706>
LayerCount: 2
Fore
SplineSet
296 606 m 1
 296 706 l 1
 386 706 l 1
 386 606 l 1
 296 606 l 1
115 606 m 1
 115 706 l 1
 205 706 l 1
 205 606 l 1
 115 606 l 1
48 -121 m 1
 61 -125 76 -135 97 -135 c 0
 171 -135 182 -78 208 -6 c 1
 11 512 l 1
 106 512 l 1
 251 93 l 1
 253 93 l 1
 400 512 l 1
 489 512 l 1
 290 -14 l 1
 239 -117 213 -214 98 -214 c 0
 73 -214 71 -208 57 -204 c 1
 48 -121 l 1
EndSplineSet
EndChar

StartChar: yen
Encoding: 165 165 225
Width: 556
Flags: HMW
HStem: 0 21G<235 323 235 235> 165 68<32 235 32 235 323 524> 321 68<32 188 32 235 32 188 369 524> 668 20G<3 101 101 101 449 553 553 553>
VStem: 235 88<0 165 0 165 233 321>
LayerCount: 2
Fore
SplineSet
32 165 m 1
 32 233 l 1
 235 233 l 1
 235 321 l 1
 32 321 l 1
 32 389 l 1
 188 389 l 1
 3 688 l 1
 101 688 l 1
 277 389 l 1
 449 688 l 1
 553 688 l 1
 369 389 l 1
 524 389 l 1
 524 321 l 1
 323 321 l 1
 323 233 l 1
 524 233 l 1
 524 165 l 1
 323 165 l 1
 323 0 l 1
 235 0 l 1
 235 165 l 1
 32 165 l 1
EndSplineSet
EndChar

StartChar: z
Encoding: 122 122 226
Width: 500
Flags: HMW
HStem: 0 76<139 469 139 469> 451 72<49 340 49 453>
LayerCount: 2
Fore
SplineSet
31 0 m 1
 31 71 l 1
 340 451 l 1
 49 451 l 1
 49 523 l 1
 453 523 l 1
 453 466 l 1
 139 76 l 1
 469 76 l 1
 469 0 l 1
 31 0 l 1
EndSplineSet
EndChar

StartChar: zcaron
Encoding: 335 382 227
Width: 500
Flags: HMW
HStem: 0 76<139 469 139 469> 446 72<49 340 49 453> 714 20G<96 196 196 196 305 405 405 405>
LayerCount: 2
Fore
SplineSet
206 597 m 1
 96 734 l 1
 196 734 l 1
 249 651 l 1
 305 734 l 1
 405 734 l 1
 299 597 l 1
 206 597 l 1
31 0 m 1
 31 71 l 1
 340 446 l 1
 49 446 l 1
 49 518 l 1
 453 518 l 1
 453 461 l 1
 139 76 l 1
 469 76 l 1
 469 0 l 1
 31 0 l 1
EndSplineSet
EndChar

StartChar: zero
Encoding: 48 48 228
Width: 556
Flags: HMW
HStem: -19 71<211 345.5 211 395.5> 632 71<215 346>
VStem: 51 93 418 93
LayerCount: 2
Fore
SplineSet
130 344 m 0
 130 226 143 52 279 52 c 0
 412 52 425 223 425 344 c 0
 425 468 414 632 278 632 c 0
 152 632 130 485 130 344 c 0
38 344 m 0
 38 420 57 703 278 703 c 0
 515 703 518 422 518 344 c 0
 518 268 512 -19 279 -19 c 0
 45 -19 38 260 38 344 c 0
EndSplineSet
EndChar
